<svg width="1024" height="768" xmlns="http://www.w3.org/2000/svg">
 <!-- Created with Method Draw - http://github.com/duopixel/Method-Draw/ -->
 <g>
  <title>background</title>
  <rect fill="#ffffff" id="canvas_background" height="770" width="1026" y="-1" x="-1"/>
  <g display="none" overflow="visible" y="0" x="0" height="100%" width="100%" id="canvasGrid">
   <rect fill="url(#gridpattern)" stroke-width="0" y="0" x="0" height="100%" width="100%"/>
  </g>
 </g>
 <g>
  <title>Layer 1</title>
  <rect stroke="#000000" id="svg_60" height="565" width="257.000005" y="112" x="23.5" fill-opacity="null" fill="none"/>
  <ellipse stroke="#FABA6F" ry="68.500004" rx="188.500005" id="svg_72" cy="379.499996" cx="191" fill-opacity="null" stroke-width="null" fill="none"/>
  <ellipse stroke="#FABA6F" ry="67.500001" rx="224.500005" id="svg_70" cy="375.499998" cx="689.999999" fill-opacity="null" stroke-width="null" fill="none"/>
  <rect stroke="#000000" id="svg_62" height="571.000037" width="461.00002" y="106" x="554.5" fill-opacity="null" fill="none"/>
  <path stroke="#000" id="svg_1" d="m61.40901,401.744983l1.266688,-7.200143l5.066767,-1.800039l-6.333455,9.000182l-31.666537,0l0,-53.999994l37.999993,0l0,44.999813" stroke-width="1.5" fill="#fff"/>
  <path stroke="#000" id="svg_2" d="m67.40901,409.74498l1.26669,-7.20014l5.06676,-1.80004l-6.33345,9.00018l-31.66654,0l0,-53.99999l38,0l0,44.99981" stroke-width="1.5" fill="#fff"/>
  <path stroke="#000" id="svg_3" d="m218.787726,214.74498l1.26669,-7.20014l5.06676,-1.80004l-6.33345,9.00018l-31.66654,0l0,-53.99999l38,0l0,44.99981" stroke-width="1.5" fill="#fff"/>
  <path stroke="#000" id="svg_4" d="m228.787733,221.74498l1.26669,-7.20014l5.06676,-1.80004l-6.33345,9.00018l-31.66654,0l0,-53.99999l38,0l0,44.99981" stroke-width="1.5" fill="#fff"/>
  <path stroke="#000" id="svg_5" d="m228.787733,311.74498l1.26669,-7.20014l5.06676,-1.80004l-6.33345,9.00018l-31.66654,0l0,-53.99999l38,0l0,44.99981" stroke-width="1.5" fill="#fff"/>
  <text xml:space="preserve" text-anchor="start" font-family="Helvetica, Arial, sans-serif" font-size="12" id="svg_6" y="239" x="174.94931" fill-opacity="null" stroke-opacity="null" stroke-width="0" stroke="#000" fill="#000000">.html/.amp.html</text>
  <text xml:space="preserve" text-anchor="start" font-family="Helvetica, Arial, sans-serif" font-size="12" id="svg_7" y="331" x="162.94931" fill-opacity="null" stroke-opacity="null" stroke-width="0" stroke="#000" fill="#000000">年毎.html/.amp.html</text>
  <path stroke="#000" id="svg_8" d="m228.787733,402.74498l1.26669,-7.20014l5.06676,-1.80004l-6.33345,9.00018l-31.66654,0l0,-53.99999l38,0l0,44.99981" stroke-width="1.5" fill="#fff"/>
  <text xml:space="preserve" text-anchor="start" font-family="Helvetica, Arial, sans-serif" font-size="12" id="svg_9" y="419" x="186.121185" fill-opacity="null" stroke-opacity="null" stroke-width="0" stroke="#000" fill="#000000">カテゴリ毎</text>
  <path stroke="#000" id="svg_10" d="m228.787733,517.74498l1.26669,-7.20014l5.06676,-1.80004l-6.33345,9.00018l-31.66654,0l0,-53.99999l38,0l0,44.99981" stroke-width="1.5" fill="#fff"/>
  <text xml:space="preserve" text-anchor="start" font-family="Helvetica, Arial, sans-serif" font-size="12" id="svg_11" y="537" x="193.785248" fill-opacity="null" stroke-opacity="null" stroke-width="0" stroke="#000" fill="#000000">feed.xml</text>
  <text xml:space="preserve" text-anchor="start" font-family="Helvetica, Arial, sans-serif" font-size="15" id="svg_12" y="433" x="37.5" fill-opacity="null" stroke-opacity="null" stroke-width="0" stroke="#000" fill="#000000">.md</text>
  <path stroke="#000" id="svg_13" d="m228.787733,613.74498l1.26669,-7.20014l5.06676,-1.80004l-6.33345,9.00018l-31.66654,0l0,-53.99999l38,0l0,44.99981" stroke-width="1.5" fill="#fff"/>
  <text xml:space="preserve" text-anchor="start" font-family="Helvetica, Arial, sans-serif" font-size="12" id="svg_14" y="634" x="183.94931" fill-opacity="null" stroke-opacity="null" stroke-width="0" stroke="#000" fill="#000000">sitemap.xml</text>
  <path id="svg_15" d="m126.62854,391.506197l9.988552,-7.827271l-19.312377,0l-19.312335,0l0,-4.845452l0,-4.845457l19.090783,0c10.499916,0 19.090769,-0.245591 19.090769,-0.545759c0,-0.300161 -4.179984,-3.822435 -9.288842,-7.82727l-9.288871,-7.281519l8.585755,0l8.585724,0l13.112345,10.259819l13.112338,10.259814l-13.137492,10.240184l-13.137488,10.240184l-9.038712,0l-9.038733,0l9.988579,-7.827275l0.000004,0.000002z" stroke-opacity="null" stroke-width="1.5" stroke="#000" fill="#000000"/>
  <path stroke="#000" id="svg_16" d="m456.838096,355.381633c0,7.087654 -14.3269,12.833334 -32.000027,12.833334m32.000027,-12.833334l0,0c0,7.087654 -14.3269,12.833334 -32.000027,12.833334c-17.673121,0 -32.000016,-5.745668 -32.000016,-12.833334m0,0l0,0c0,-7.087647 14.326896,-12.83333 32.000016,-12.83333c17.673127,0 32.000027,5.745684 32.000027,12.83333l0,51.333356c0,7.087647 -14.3269,12.833311 -32.000027,12.833311c-17.673121,0 -32.000016,-5.745664 -32.000016,-12.833311l0,-51.333356z" stroke-opacity="null" stroke-width="1.5" fill="none"/>
  <path id="svg_17" d="m464.840156,286.513506c-3.899425,-0.566175 -7.957944,-0.938954 -11.253461,-1.039857l-0.58118,-0.016817c0.133119,-0.252256 0.233771,-0.42323 0.266239,-0.448456c0.07143,-0.050451 0.129873,-0.263468 0.136366,-0.470878c0,-0.114917 0.058443,-0.487696 0.149353,-0.980997c0.892874,0.028028 2.077962,0.050451 3.370194,0.05886c4.990355,0.033634 10.211234,0.381187 13.792471,0.927743c2.133158,0.32513 2.837716,0.313919 1.263011,-0.016817c-1.594186,-0.333539 -6.321549,-0.824037 -10.087855,-1.037054c-2.529269,-0.148551 -6.155962,-0.204608 -8.292366,-0.173777c0.061689,-0.319525 0.133119,-0.675486 0.207796,-1.039857c0.301954,-1.409832 0.402605,-2.828073 0.409099,-5.650541c0.006494,-4.378048 -0.266239,-5.583273 -1.918868,-8.478614c-0.672091,-1.182802 -1.431845,-2.186221 -2.350694,-3.094344c0.801963,-2.043276 0.782482,-5.207691 -0.048702,-7.98251c-0.685078,-2.275912 -0.925342,-2.42166 -3.314998,-1.984416c-2.026013,0.372779 -3.64942,0.880094 -5.730629,1.785414c-0.983785,0.428836 -2.340954,1.095913 -3.324739,1.620046c-2.564984,-0.779192 -5.217632,-1.294916 -8.048855,-1.572398c-2.870185,-0.280285 -9.906033,-0.123325 -12.402834,0.274679c-2.441605,0.389596 -4.639699,0.86608 -6.629997,1.432255c-0.993525,-0.529738 -2.435111,-1.244464 -3.464352,-1.69292c-2.090949,-0.908123 -3.714357,-1.412635 -5.746863,-1.785414c-2.383162,-0.440047 -2.62992,-0.291496 -3.311751,1.984416c-0.844172,2.811256 -0.850666,6.028925 -0.016234,8.066596c0.097404,0.232636 0.155847,0.398004 0.178575,0.526935c-3.383181,3.677336 -4.487099,7.791917 -3.753318,13.534952c0.191562,1.496721 0.487022,2.870116 0.899368,4.128595c-2.159132,-0.011211 -5.230619,0.056057 -7.448194,0.179382c-3.772799,0.215819 -8.500162,0.700712 -10.094348,1.034251c-1.571459,0.330736 -0.873393,0.341947 1.263011,0.01962c3.581237,-0.543752 8.805363,-0.896911 13.792471,-0.927743c0.941576,-0.002803 1.821463,-0.01962 2.577971,-0.036437c0.227277,0.664275 0.487022,1.297719 0.782482,1.900331l-0.022728,0.002803c-3.295517,0.0981 -7.35079,0.470878 -11.250215,1.037054c-2.92538,0.42323 -7.243645,1.26969 -7.746901,1.513538c-0.529231,0.255059 -0.097404,0.199002 2.168873,-0.297102c4.133196,-0.902517 9.506675,-1.59482 16.162646,-2.07691l0.743521,-0.056057c1.428599,2.86451 3.629939,5.050732 6.740388,6.754863c1.902634,1.045462 4.951393,2.118953 6.487137,2.287124c0.422086,0.044846 1.649382,0.263468 2.727325,0.48209c1.081189,0.218622 3.194866,0.546555 4.694895,0.734346l0.035715,0c-0.029221,0.016817 -0.055196,0.028028 -0.08117,0.044846c-1.818216,0.815629 -3.000057,2.085319 -3.795527,4.083749c-0.35715,0.092494 -0.801963,0.218622 -1.282492,0.361567c-1.717565,0.504513 -2.386409,0.608218 -4.126702,0.619429c-1.805229,0.011211 -2.233809,-0.056057 -3.311751,-0.493301c-1.568212,-0.630641 -3.029279,-1.79102 -4.003323,-3.175626c-1.626654,-2.315152 -4.438396,-3.952015 -6.782597,-3.952015c-2.003285,0 -2.383162,0.700712 -0.935083,1.723751c2.18186,1.538763 3.811761,3.108358 4.480605,4.307977c0.376631,0.672683 0.954564,1.71254 1.288986,2.309547c0.353903,0.636246 1.110411,1.499524 1.831204,2.09653c1.694838,1.395818 3.331232,2.062896 5.772837,2.376815c1.636395,0.207411 2.039,0.207411 3.970855,-0.005606c0.931836,-0.0981 1.717565,-0.213016 2.422124,-0.355962c0,0.683895 0,1.471495 0,2.396435c0,4.949829 -0.068183,6.541847 -0.29546,7.007119c-0.42858,0.8857 -1.389637,1.796625 -2.32472,2.205841c-0.931836,0.409216 -1.220803,0.860474 -0.827938,1.275296c0.217537,0.224228 0.636376,0.263468 2.042247,0.184988c2.668882,-0.142945 4.555282,-0.995011 5.516339,-2.497337c0.308447,-0.48209 0.379877,-1.451875 0.477282,-6.497001c0.103898,-5.473962 0.149353,-6.000897 0.561699,-6.782892c0.250005,-0.465273 0.610401,-0.969785 0.811704,-1.107125c0.337669,-0.241045 0.360396,0.235439 0.360396,6.782892c-0.003247,7.225741 -0.087664,8.097427 -0.925342,9.48764c-0.188315,0.316722 -0.545465,0.72874 -0.79547,0.92494c-0.43832,0.34475 -0.623389,1.227647 -0.318188,1.493918c0.503256,0.431639 3.026032,-0.246651 4.402681,-1.182802c2.344201,-1.603229 2.623427,-2.928976 2.642908,-12.503504l0.00974,-5.616907l0.711053,0.05886l0.711053,0.056057l0.116885,7.346264c0.133119,8.271204 0.1526,8.391726 1.782502,9.989349c0.925342,0.902517 1.857178,1.401424 3.373441,1.79102c2.029259,0.526935 2.639661,-0.28589 1.275998,-1.695723c-1.483795,-1.533158 -1.555224,-2.118953 -1.474054,-11.194574c0.055196,-5.818712 0.055196,-5.818712 0.490269,-5.479567c0.915602,0.717529 1.09093,1.894725 1.09093,7.35187c0,6.777286 0.22403,7.421941 2.99681,8.604743c1.295479,0.546555 1.659123,0.613824 3.318245,0.619429c1.766267,0.005606 1.873412,-0.016817 1.938349,-0.414821c0.055196,-0.322327 -0.162341,-0.54095 -0.987032,-0.975391c-1.081189,-0.574584 -1.831204,-1.30893 -2.301992,-2.23387c-0.178575,-0.355962 -0.298707,-2.687931 -0.379877,-7.489209c-0.116885,-6.707215 -0.14286,-7.012725 -0.626635,-8.063793c-0.65261,-1.412635 -1.649382,-2.528169 -2.912393,-3.26812c-0.327928,-0.184988 -0.655857,-0.339145 -1.081189,-0.454061c0.522737,-0.044846 1.02924,-0.092494 1.51951,-0.154157c5.103993,-0.585795 7.802097,-1.073491 9.967723,-1.796625c4.581256,-1.521946 7.678718,-4.050115 9.357321,-7.634957c0.149353,-0.319525 0.298707,-0.622232 0.425333,-0.86608l1.292232,0.092494c6.659218,0.484893 12.032697,1.177196 16.165893,2.082516c2.266277,0.496104 2.698103,0.554964 2.168873,0.294299c-0.493516,-0.238242 -4.81178,-1.081899 -7.733914,-1.505129zm-19.526346,-0.086888c-0.756508,1.435058 -2.866938,3.279332 -4.571516,4.002467c-1.68185,0.717529 -4.318264,1.264084 -7.305334,1.524749c-2.042247,0.179382 -13.432074,0.232636 -15.31198,0.072874c-6.224145,-0.526935 -9.711224,-1.561186 -12.282702,-3.632491c-2.435111,-1.967599 -3.571497,-4.638713 -3.373441,-7.926453c0.126626,-2.05729 0.701312,-3.349403 2.204588,-4.918998c1.366909,-1.429452 2.805248,-2.312349 4.500086,-2.760805c1.418858,-0.375582 5.772837,-0.409216 11.626845,-0.084085c2.587712,0.142945 4.727363,0.142945 7.311828,0c6.123493,-0.333539 10.211234,-0.297102 11.721003,0.106508c2.373422,0.633444 4.535801,2.337575 5.834527,4.607882c0.584427,1.014631 0.698065,1.446269 0.782482,3.013061c0.116885,2.158193 -0.314941,4.450922 -1.136385,5.995291zm-30.877212,-9.266215c-3.483833,-0.526935 -5.47413,4.621896 -2.802001,7.250967c1.269505,1.247267 2.39615,1.451875 3.805267,0.695106c1.30522,-0.703515 2.013025,-2.01805 2.013025,-3.722182c0,-2.27311 -1.198075,-3.943607 -3.016291,-4.223892zm21.146507,0.308313c-3.483833,-0.526935 -5.477377,4.61629 -2.805248,7.248164c1.272752,1.247267 2.39615,1.454678 3.808514,0.692303c1.301973,-0.700712 2.013025,-2.01805 2.013025,-3.722182c0,-2.264701 -1.198075,-3.940804 -3.016291,-4.218286zm-9.370309,10.123886c-0.074677,0.207411 -0.43832,0.515724 -0.80521,0.681092c-0.928589,0.412019 -1.597433,0.269073 -2.577971,-0.50171c-0.607154,-0.473681 -0.883134,-0.723135 -1.068202,-0.227031c-0.172081,0.459667 0.909108,1.381804 1.74354,1.664892c0.766248,0.263468 1.31496,0.271876 2.146145,-0.028028c0.824691,-0.297102 1.545484,-1.095913 1.545484,-1.61444c0,-0.48209 -0.801963,-0.459667 -0.983785,0.025226zm-1.02924,-1.611637c0.529231,-0.40361 0.649363,-1.233253 0.14286,-1.6733s-1.535744,-0.372779 -1.938349,0.120522c-0.467541,0.577387 -0.217537,1.017434 0.116885,1.485509c0.51949,0.347553 1.217556,0.417624 1.678603,0.067268z" stroke-opacity="null" stroke-width="1.5" stroke="#000" fill="#000000"/>
  <path id="svg_18" d="m329.257355,386.506197l9.988552,-7.827271l-19.312377,0l-19.312335,0l0,-4.845452l0,-4.845457l19.090784,0c10.499916,0 19.090768,-0.24559 19.090768,-0.545758c0,-0.300162 -4.179984,-3.822435 -9.288842,-7.82727l-9.288871,-7.28152l8.585756,0l8.585723,0l13.112345,10.25982l13.112339,10.259814l-13.137492,10.240184l-13.137488,10.240183l-9.038712,0l-9.038733,0l9.988579,-7.827274l0.000004,0.000001z" stroke-opacity="null" stroke-width="1.5" stroke="#000" fill="#000000"/>
  <text xml:space="preserve" text-anchor="start" font-family="Helvetica, Arial, sans-serif" font-size="15" id="svg_19" y="191" x="402.173996" stroke-opacity="null" stroke-width="0" stroke="#000" fill="#000000">GitHub</text>
  <path stroke="#000" id="svg_22" d="m620.338392,311.74498l1.26669,-7.20014l5.06676,-1.80004l-6.33345,9.00018l-31.66654,0l0,-53.99999l38,0l0,44.99981" stroke-width="1.5" fill="#fff"/>
  <text xml:space="preserve" text-anchor="start" font-family="Helvetica, Arial, sans-serif" font-size="12" id="svg_23" y="245" x="566.5" fill-opacity="null" stroke-opacity="null" stroke-width="0" stroke="#000" fill="#000000">.html/.amp.html</text>
  <text xml:space="preserve" text-anchor="start" font-family="Helvetica, Arial, sans-serif" font-size="12" id="svg_24" y="337" x="554.5" fill-opacity="null" stroke-opacity="null" stroke-width="0" stroke="#000" fill="#000000">年毎.html/.amp.html</text>
  <path stroke="#000" id="svg_25" d="m620.338392,402.74498l1.26669,-7.20014l5.06676,-1.80004l-6.33345,9.00018l-31.66654,0l0,-53.99999l38,0l0,44.99981" stroke-width="1.5" fill="#fff"/>
  <path stroke="#000" id="svg_27" d="m623.338392,511.74498l1.26669,-7.20014l5.06676,-1.80004l-6.33345,9.00018l-31.66654,0l0,-53.99999l38,0l0,44.99981" stroke-width="1.5" fill="#fff"/>
  <text xml:space="preserve" text-anchor="start" font-family="Helvetica, Arial, sans-serif" font-size="12" id="svg_28" y="536" x="588.335938" fill-opacity="null" stroke-opacity="null" stroke-width="0" stroke="#000" fill="#000000">feed.xml</text>
  <path stroke="#000" id="svg_29" d="m623.338392,607.74498l1.26669,-7.20014l5.06676,-1.80004l-6.33345,9.00018l-31.66654,0l0,-53.99999l38,0l0,44.99981" stroke-width="1.5" fill="#fff"/>
  <text xml:space="preserve" text-anchor="start" font-family="Helvetica, Arial, sans-serif" font-size="12" id="svg_30" y="629" x="578.5" fill-opacity="null" stroke-opacity="null" stroke-width="0" stroke="#000" fill="#000000">sitemap.xml</text>
  <text xml:space="preserve" text-anchor="start" font-family="Helvetica, Arial, sans-serif" font-size="12" id="svg_31" y="441" x="174.94931" fill-opacity="null" stroke-opacity="null" stroke-width="0" stroke="#000" fill="#000000">.html/.amp.html</text>
  <path id="svg_32" d="m514.62854,383.506197l9.988552,-7.827271l-19.312377,0l-19.312335,0l0,-4.845452l0,-4.845457l19.090784,0c10.499916,0 19.090768,-0.24559 19.090768,-0.545758c0,-0.300162 -4.179984,-3.822435 -9.288842,-7.82727l-9.288871,-7.28152l8.585756,0l8.585723,0l13.112345,10.25982l13.112339,10.259814l-13.137492,10.240184l-13.137488,10.240183l-9.038712,0l-9.038733,0l9.988579,-7.827274l0.000004,0.000001z" stroke-opacity="null" stroke-width="1.5" stroke="#000" fill="#000000"/>
  <path stroke="#000" id="svg_33" d="m809.40901,211.74498l1.26669,-7.20014l5.06676,-1.80004l-6.33345,9.00018l-31.66654,0l0,-53.99999l38,0l0,44.99981" stroke-width="1.5" fill="#fff"/>
  <path stroke="#000" id="svg_34" d="m815.40901,219.74498l1.26669,-7.20014l5.06676,-1.80004l-6.33345,9.00018l-31.66654,0l0,-53.99999l38,0l0,44.99981" stroke-width="1.5" fill="#fff"/>
  <path stroke="#000" id="svg_35" d="m813.40901,309.74498l1.26669,-7.20014l5.06676,-1.80004l-6.33345,9.00018l-31.66654,0l0,-53.99999l38,0l0,44.99981" stroke-width="1.5" fill="#fff"/>
  <text xml:space="preserve" text-anchor="start" font-family="Helvetica, Arial, sans-serif" font-size="12" id="svg_36" y="241" x="744.5" fill-opacity="null" stroke-opacity="null" stroke-width="0" stroke="#000" fill="#000000">.html.gz/.amp.html.gz</text>
  <text xml:space="preserve" text-anchor="start" font-family="Helvetica, Arial, sans-serif" font-size="12" id="svg_37" y="333" x="740.5" fill-opacity="null" stroke-opacity="null" stroke-width="0" stroke="#000" fill="#000000">年毎.html.gz/.amp.html.gz</text>
  <path stroke="#000" id="svg_38" d="m814.40901,400.74498l1.26669,-7.20014l5.06676,-1.80004l-6.33345,9.00018l-31.66654,0l0,-53.99999l38,0l0,44.99981" stroke-width="1.5" fill="#fff"/>
  <path stroke="#000" id="svg_40" d="m816.40901,509.74498l1.26669,-7.20014l5.06676,-1.80004l-6.33345,9.00018l-31.66654,0l0,-53.99999l38,0l0,44.99981" stroke-width="1.5" fill="#fff"/>
  <text style="cursor: move;" xml:space="preserve" text-anchor="start" font-family="Helvetica, Arial, sans-serif" font-size="12" id="svg_41" y="532" x="776.5" fill-opacity="null" stroke-opacity="null" stroke-width="0" stroke="#000" fill="#000000">feed.xml.gz</text>
  <path stroke="#000" id="svg_42" d="m816.40901,605.74498l1.26669,-7.20014l5.06676,-1.80004l-6.33345,9.00018l-31.66654,0l0,-53.99999l38,0l0,44.99981" stroke-width="1.5" fill="#fff"/>
  <text style="cursor: move;" xml:space="preserve" text-anchor="start" font-family="Helvetica, Arial, sans-serif" font-size="12" id="svg_43" y="626" x="764.5" fill-opacity="null" stroke-opacity="null" stroke-width="0" stroke="#000" fill="#000000">sitemap.xml.gz</text>
  <text xml:space="preserve" text-anchor="start" font-family="Helvetica, Arial, sans-serif" font-size="12" id="svg_44" y="417" x="577.671875" fill-opacity="null" stroke-opacity="null" stroke-width="0" stroke="#000" fill="#000000">カテゴリ毎</text>
  <text xml:space="preserve" text-anchor="start" font-family="Helvetica, Arial, sans-serif" font-size="12" id="svg_45" y="433" x="569.5" fill-opacity="null" stroke-opacity="null" stroke-width="0" stroke="#000" fill="#000000">.html/.amp.html</text>
  <text xml:space="preserve" text-anchor="start" font-family="Helvetica, Arial, sans-serif" font-size="12" id="svg_46" y="418" x="765.5" fill-opacity="null" stroke-opacity="null" stroke-width="0" stroke="#000" fill="#000000">カテゴリ毎</text>
  <text style="cursor: move;" xml:space="preserve" text-anchor="start" font-family="Helvetica, Arial, sans-serif" font-size="12" id="svg_47" y="440" x="751.5" fill-opacity="null" stroke-opacity="null" stroke-width="0" stroke="#000" fill="#000000">.html.gz/.amp.html.gz</text>
  <g id="svg_48">
   <path stroke="#000" id="svg_20" d="m617.338392,213.74498l1.26669,-7.20014l5.06676,-1.80004l-6.33345,9.00018l-31.66654,0l0,-53.99999l38,0l0,44.99981" stroke-width="1.5" fill="#fff"/>
   <path stroke="#000" id="svg_21" d="m623.338392,221.74498l1.26669,-7.20014l5.06676,-1.80004l-6.33345,9.00018l-31.66654,0l0,-53.99999l38,0l0,44.99981" stroke-width="1.5" fill="#fff"/>
  </g>
  <path id="svg_49" d="m702.62854,386.506197l9.988552,-7.827271l-19.312377,0l-19.312335,0l0,-4.845452l0,-4.845457l19.090784,0c10.499916,0 19.090768,-0.24559 19.090768,-0.545758c0,-0.300162 -4.179984,-3.822435 -9.288842,-7.82727l-9.288871,-7.28152l8.585756,0l8.585723,0l13.112345,10.25982l13.112339,10.259814l-13.137492,10.240184l-13.137488,10.240183l-9.038712,0l-9.038733,0l9.988579,-7.827274l0.000004,0.000001z" stroke-opacity="null" stroke-width="1.5" stroke="#000" fill="#000000"/>
  <text xml:space="preserve" text-anchor="start" font-family="Helvetica, Arial, sans-serif" font-size="18" id="svg_51" y="378" x="911.5" stroke-opacity="null" stroke-width="0" stroke="#000" fill="#000000">Nginxで公開</text>
  <path id="svg_52" d="m872.62854,385.506197l9.988552,-7.827271l-19.312377,0l-19.312335,0l0,-4.845452l0,-4.845457l19.090784,0c10.499916,0 19.090768,-0.24559 19.090768,-0.545758c0,-0.300162 -4.179984,-3.822435 -9.288842,-7.82727l-9.288871,-7.28152l8.585756,0l8.585723,0l13.112345,10.25982l13.112339,10.259814l-13.137492,10.240184l-13.137488,10.240183l-9.038712,0l-9.038733,0l9.988579,-7.827274l0.000004,0.000001z" stroke-opacity="null" stroke-width="1.5" stroke="#000" fill="#000000"/>
  <text xml:space="preserve" text-anchor="start" font-family="Helvetica, Arial, sans-serif" font-size="12" id="svg_53" y="422" x="676.5" stroke-opacity="null" stroke-width="0" stroke="#000" fill="#000000">.gzip圧縮</text>
  <text style="cursor: move;" xml:space="preserve" text-anchor="start" font-family="Helvetica, Arial, sans-serif" font-size="12" id="svg_54" y="420" x="491.5" stroke-opacity="null" stroke-width="0" stroke="#000" fill="#000000">WebHook</text>
  <text xml:space="preserve" text-anchor="start" font-family="Helvetica, Arial, sans-serif" font-size="12" id="svg_55" y="439" x="481.5" fill-opacity="null" stroke-opacity="null" stroke-width="0" stroke="#000" fill="#000000">で更新を検知</text>
  <text xml:space="preserve" text-anchor="start" font-family="Helvetica, Arial, sans-serif" font-size="12" id="svg_56" y="402" x="929.5" fill-opacity="null" stroke-opacity="null" stroke-width="0" stroke="#000" fill="#000000">gzip_static</text>
  <text xml:space="preserve" text-anchor="start" font-family="Helvetica, Arial, sans-serif" font-size="12" id="svg_57" y="429" x="310.5" fill-opacity="null" stroke-opacity="null" stroke-width="0" stroke="#000" fill="#000000">git push</text>
  <text xml:space="preserve" text-anchor="start" font-family="Helvetica, Arial, sans-serif" font-size="12" id="svg_58" y="425" x="97.5" fill-opacity="null" stroke-opacity="null" stroke-width="0" stroke="#000" fill="#000000">コンテンツ</text>
  <text xml:space="preserve" text-anchor="start" font-family="Helvetica, Arial, sans-serif" font-size="12" id="svg_59" y="437" x="98.5" fill-opacity="null" stroke-opacity="null" stroke-width="0" stroke="#000" fill="#000000">の生成</text>
  <text xml:space="preserve" text-anchor="start" font-family="Helvetica, Arial, sans-serif" font-size="12" id="svg_61" y="67" x="102.5" fill-opacity="null" stroke-width="0" stroke="#000000" fill="#000000">Windows 10 PC</text>
  <text xml:space="preserve" text-anchor="start" font-family="Helvetica, Arial, sans-serif" font-size="12" id="svg_63" y="60" x="761.5" fill-opacity="null" stroke-width="0" stroke="#000000" fill="#000000">ubuntu</text>
  <text xml:space="preserve" text-anchor="start" font-family="Helvetica, Arial, sans-serif" font-size="12" id="svg_67" y="89" x="721.5" fill-opacity="null" stroke-opacity="null" stroke-width="0" stroke="#000000" fill="#000000">http://www.sfpgmr.net/</text>
  <text xml:space="preserve" text-anchor="start" font-family="Helvetica, Arial, sans-serif" font-size="12" id="svg_69" y="225" x="346.5" fill-opacity="null" stroke-opacity="null" stroke-width="0" stroke="#000000" fill="#000000">https://github.com/sfpgmr/www</text>
  <ellipse id="svg_71" cy="105" cx="938.5" fill-opacity="null" stroke-width="null" stroke="#000000" fill="none"/>
  <line stroke-linecap="null" stroke-linejoin="null" id="svg_74" y2="686" x2="77.5" y1="442" x1="104.5" fill-opacity="null" stroke-width="null" stroke="#FABA6F" fill="none"/>
  <text xml:space="preserve" text-anchor="start" font-family="Helvetica, Arial, sans-serif" font-size="18" id="svg_75" y="706" x="42.5" stroke-width="0" stroke="#FFB27C" fill="#ff0000">build-blog.js</text>
  <text stroke="#FFB27C" transform="matrix(1,0,0,0.9511823058128357,0,34.88558193203062) " xml:space="preserve" text-anchor="start" font-family="Helvetica, Arial, sans-serif" font-size="18" id="svg_76" y="731" x="-128.5" stroke-width="0" fill="#000000"/>
  <text xml:space="preserve" text-anchor="start" font-family="Helvetica, Arial, sans-serif" font-size="18" id="svg_77" y="702" x="404.5" stroke-width="0" stroke="#FFB27C" fill="#ff0000">webhook.js</text>
  <line stroke-linecap="null" stroke-linejoin="null" id="svg_78" y2="429" x2="560.5" y1="687" x1="452.5" stroke-width="null" stroke="#FFB27C" fill="none"/>
  <line stroke-linecap="null" stroke-linejoin="null" id="svg_79" y2="691" x2="1112.5" y1="690" x1="1112.5" stroke-width="null" stroke="#FFB27C" fill="none"/>
  <text xml:space="preserve" text-anchor="start" font-family="Helvetica, Arial, sans-serif" font-size="12" id="svg_80" y="422" x="937.5" fill-opacity="null" stroke-opacity="null" stroke-width="0" stroke="#000" fill="#000000">HTTP/2</text>
  <path stroke="#000" id="svg_81" d="m151.787733,613.74498l1.26669,-7.20014l5.06676,-1.80004l-6.33345,9.00018l-31.66654,0l0,-53.99999l38,0l0,44.99981" stroke-width="1.5" fill="#fff"/>
  <text xml:space="preserve" text-anchor="start" font-family="Helvetica, Arial, sans-serif" font-size="12" id="svg_82" y="634" x="106.94931" fill-opacity="null" stroke-opacity="null" stroke-width="0" stroke="#000" fill="#000000">entries.json</text>
 </g>
</svg>