<svg width="1024" height="768" xmlns="http://www.w3.org/2000/svg">
 <!-- Created with Method Draw - http://github.com/duopixel/Method-Draw/ -->

 <metadata id="metadata865">image/svg+xml</metadata>
 <g>
  <title>background</title>
  <rect fill="#ffffff" id="canvas_background" height="770" width="1026" y="-1" x="-1"/>
 </g>
 <g>
  <title>Layer 1</title>
  <rect fill="#ffffff" stroke-width="1.5" x="269.000038" y="160.670013" width="432.669998" height="535.834031" id="svg_15" stroke="#ff0000"/>
  <rect stroke="#000000" fill="none" stroke-width="1.5" stroke-opacity="null" x="56.5" y="171.833" width="115" height="204.170012" id="svg_2"/>
  <text font-family="Helvetica, Arial, sans-serif" text-anchor="start" fill="#000000" stroke="#000000" stroke-width="0" stroke-opacity="null" x="79.5" y="201.17" id="svg_3" font-size="24px" xml:space="preserve">GitHub</text>
  <rect stroke="#000000" fill="none" stroke-width="1.5" stroke-opacity="null" x="49" y="517.5" width="129.000003" height="77" id="svg_4"/>
  <text font-family="Helvetica, Arial, sans-serif" text-anchor="start" fill="#000000" stroke="#000000" stroke-width="0" stroke-opacity="null" fill-opacity="null" x="79" y="566.5" id="svg_5" font-size="24px" xml:space="preserve">Client</text>
  <text font-family="Helvetica, Arial, sans-serif" text-anchor="start" fill="#000000" stroke="#000000" stroke-width="0" stroke-opacity="null" fill-opacity="null" x="363.17" y="200.833" id="svg_7" font-size="24px" xml:space="preserve">www.sfpgmr.net</text>
  <path fill="#000000" stroke="#000000" stroke-width="1.5" stroke-opacity="null" d="m87.85,446.04l20.5,-56.36l20.5,56.36l-10.25,0l0,56.64l-20.5,0l0,-56.64l-10.25,0z" id="svg_8"/>
  <text font-family="Helvetica, Arial, sans-serif" text-anchor="start" fill="#000000" stroke="#000000" stroke-width="0" stroke-opacity="null" x="69.5" y="627" id="svg_9" font-size="24px" xml:space="preserve">1.push</text>
  <path fill="#000000" stroke="#000000" stroke-width="1.5" stroke-opacity="null" d="m224.76,259.02l18.79,13.83l-18.79,13.83l0,-6.91l-18.88,0l0,-13.84l18.88,0l0,-6.91z" id="svg_10"/>
  <text font-family="Helvetica, Arial, sans-serif" text-anchor="start" fill="#000000" stroke="#000000" stroke-width="0" stroke-opacity="null" x="175" y="219.5" id="svg_11" font-size="18px" xml:space="preserve">2. 更新通知</text>
  <text font-family="Helvetica, Arial, sans-serif" text-anchor="start" fill="#000000" stroke="#000000" stroke-width="0" id="text4623" stroke-opacity="null" x="295" y="263.5" font-size="18px" xml:space="preserve"/>
  <text font-family="Helvetica, Arial, sans-serif" text-anchor="start" fill="#000000" stroke="#000000" stroke-width="0" stroke-opacity="null" x="327.15" y="387.07" id="svg_13" font-size="18px" xml:space="preserve"/>
  <path fill="#000000" stroke="#000000" stroke-width="1.5" stroke-opacity="null" d="m155.1,310.93c-3.69,-0.64 -7.52,-1.07 -10.63,-1.18l-0.55,0c0.13,-0.29 0.22,-0.49 0.25,-0.51c0.1,-0.1 0.13,-0.31 0.13,-0.54c0,-0.13 0.1,-0.56 0.14,-1.12c0.85,0 1.97,0.1 3.19,0.1c4.71,0 9.64,0.43 13.02,1.05c2.01,0.38 2.68,0.36 1.19,0c-1.5,-0.39 -5.97,-0.95 -9.52,-1.19c-2.39,-0.17 -5.82,-0.23 -7.83,-0.2c0,-0.36 0.12,-0.77 0.19,-1.18c0.29,-1.61 0.38,-3.23 0.39,-6.45c0,-5 -0.25,-6.38 -1.81,-9.68c-0.64,-1.35 -1.35,-2.5 -2.22,-3.54c0.75,-2.33 0.74,-5.94 0,-9.11c-0.65,-2.6 -0.87,-2.76 -3.13,-2.26c-1.91,0.42 -3.44,1 -5.41,2.03c-0.93,0.49 -2.21,1.25 -3.14,1.85c-2.42,-0.89 -4.92,-1.48 -7.6,-1.79c-2.71,-0.32 -9.35,-0.14 -11.71,0.31c-2.3,0.45 -4.38,0.99 -6.26,1.64c-0.94,-0.61 -2.3,-1.42 -3.27,-1.94c-1.97,-1.03 -3.51,-1.61 -5.43,-2.03c-2.25,-0.51 -2.48,-0.34 -3.12,2.26c-0.8,3.21 -0.81,6.88 0,9.21c0.1,0.27 0.15,0.45 0.17,0.6c-3.19,4.2 -4.24,8.9 -3.54,15.45c0.18,1.71 0.46,3.28 0.85,4.72c-2.04,0 -4.94,0.1 -7.04,0.2c-3.56,0.25 -8.02,0.8 -9.53,1.18c-1.48,0.38 -0.82,0.39 1.19,0c3.39,-0.62 8.32,-1.02 13.03,-1.06c0.89,0 1.72,0 2.43,0c0.22,0.76 0.46,1.48 0.74,2.17l0,0c-3.11,0.11 -6.94,0.53 -10.62,1.18c-2.77,0.48 -6.84,1.45 -7.32,1.73c-0.5,0.29 -0.1,0.22 2.05,-0.34c3.9,-1.03 8.98,-1.82 15.26,-2.37l0.7,-0.1c1.35,3.27 3.43,5.77 6.37,7.71c1.79,1.2 4.67,2.42 6.12,2.62c0.4,0.1 1.56,0.3 2.58,0.55c1.02,0.25 3.01,0.62 4.43,0.83l0,0c0,0 -0.1,0 -0.1,0.1c-1.72,0.93 -2.84,2.38 -3.59,4.66c-0.33,0.1 -0.75,0.25 -1.21,0.41c-1.62,0.58 -2.25,0.69 -3.89,0.71c-1.71,0 -2.11,-0.1 -3.13,-0.57c-1.48,-0.72 -2.86,-2.04 -3.78,-3.62c-1.54,-2.64 -4.19,-4.51 -6.41,-4.51c-1.89,0 -2.25,0.8 -0.88,1.97c2.06,1.75 3.6,3.54 4.23,4.91c0.36,0.77 0.9,1.96 1.22,2.64c0.33,0.73 1.05,1.71 1.73,2.39c1.6,1.6 3.14,2.36 5.45,2.72c1.54,0.23 1.92,0.23 3.75,0c0.88,-0.11 1.62,-0.24 2.29,-0.41c0,0.78 0,1.68 0,2.74c0,5.65 -0.1,7.47 -0.28,8c-0.41,1.01 -1.32,2.05 -2.2,2.52c-0.88,0.46 -1.15,0.98 -0.78,1.45c0.21,0.26 0.6,0.3 1.93,0.21c2.52,-0.16 4.3,-1.13 5.21,-2.85c0.29,-0.55 0.36,-1.65 0.45,-7.41c0.1,-6.25 0.14,-6.85 0.53,-7.75c0.23,-0.53 0.57,-1.1 0.76,-1.26c0.32,-0.28 0.34,0.27 0.34,7.74c0,8.25 -0.1,9.25 -0.87,10.83c-0.18,0.37 -0.51,0.84 -0.75,1.06c-0.41,0.39 -0.59,1.4 -0.3,1.7c0.47,0.5 2.86,-0.28 4.16,-1.35c2.21,-1.83 2.47,-3.34 2.49,-14.27l0,-6.41l0.67,0.1l0.67,0.1l0.11,8.39c0.13,9.44 0.15,9.58 1.69,11.4c0.87,1.03 1.75,1.6 3.18,2.04c1.92,0.61 2.49,-0.32 1.21,-1.93c-1.4,-1.75 -1.47,-2.42 -1.39,-12.78c0,-6.64 0,-6.64 0.46,-6.26c0.86,0.82 1.03,2.17 1.03,8.4c0,7.73 0.21,8.47 2.83,9.82c1.22,0.62 1.56,0.7 3.13,0.71c1.67,0 1.77,0 1.83,-0.48c0,-0.36 -0.15,-0.61 -0.93,-1.11c-1.02,-0.66 -1.73,-1.49 -2.17,-2.55c-0.17,-0.41 -0.29,-3.07 -0.36,-8.55c-0.11,-7.66 -0.14,-8.01 -0.59,-9.21c-0.62,-1.61 -1.56,-2.88 -2.75,-3.73c-0.31,-0.21 -0.62,-0.38 -1.03,-0.52c0.5,0 0.98,-0.1 1.44,-0.17c4.82,-0.67 7.37,-1.23 9.41,-2.05c4.33,-1.74 7.25,-4.63 8.84,-8.72c0.14,-0.36 0.28,-0.71 0.4,-0.99l1.22,0.11c6.29,0.55 11.36,1.34 15.26,2.38c2.14,0.56 2.55,0.63 2.05,0.33c-0.47,-0.27 -4.54,-1.23 -7.3,-1.72l-0.02,-0.16zm-18.44,-0.1c-0.71,1.64 -2.71,3.75 -4.32,4.57c-1.58,0.82 -4.07,1.45 -6.89,1.74c-1.93,0.21 -12.69,0.27 -14.46,0.1c-5.88,-0.6 -9.17,-1.78 -11.6,-4.15c-2.3,-2.25 -3.37,-5.29 -3.18,-9.05c0.12,-2.35 0.66,-3.82 2.08,-5.61c1.29,-1.64 2.65,-2.64 4.25,-3.16c1.34,-0.42 5.45,-0.46 10.97,-0.1c2.45,0.16 4.47,0.16 6.91,0c5.78,-0.38 9.64,-0.34 11.07,0.12c2.24,0.72 4.28,2.67 5.5,5.26c0.56,1.16 0.66,1.65 0.74,3.44c0.11,2.46 -0.29,5.08 -1.07,6.84zm-29.15,-10.57c-3.29,-0.61 -5.17,5.27 -2.65,8.27c1.2,1.43 2.26,1.66 3.59,0.8c1.24,-0.81 1.9,-2.31 1.9,-4.25c0,-2.6 -1.13,-4.5 -2.84,-4.82zm19.96,0.35c-3.29,-0.6 -5.17,5.27 -2.65,8.27c1.21,1.43 2.27,1.66 3.6,0.79c1.23,-0.8 1.9,-2.3 1.9,-4.25c0,-2.58 -1.13,-4.49 -2.85,-4.81zm-8.85,11.56c-0.1,0.23 -0.41,0.58 -0.76,0.77c-0.87,0.47 -1.5,0.31 -2.43,-0.57c-0.57,-0.54 -0.83,-0.82 -1.01,-0.26c-0.16,0.53 0.86,1.58 1.65,1.9c0.72,0.3 1.24,0.31 2.02,0c0.78,-0.34 1.46,-1.25 1.46,-1.84c0,-0.55 -0.75,-0.53 -0.93,0zm-0.97,-1.84c0.5,-0.46 0.62,-1.41 0.14,-1.91c-0.48,-0.51 -1.45,-0.43 -1.83,0.13c-0.44,0.66 -0.21,1.16 0.11,1.7c0.49,0.4 1.15,0.48 1.58,0.1l0,-0.02z" id="svg_14"/>
  <text font-family="Helvetica, Arial, sans-serif" text-anchor="start" fill="#ff0000" stroke-width="0" stroke-opacity="null" x="280.17" y="252.5" id="svg_17" font-size="18px" xml:space="preserve" stroke="#000000">node.js (express)</text>
  <text font-family="Helvetica, Arial, sans-serif" text-anchor="start" fill="#000000" stroke="#000000" stroke-width="0" stroke-opacity="null" fill-opacity="null" x="287.17" y="394.33" id="svg_19" font-size="18px" xml:space="preserve">webhook.mjs(ルータ)</text>
  <path fill="#000000" stroke="#000000" stroke-width="0.86117" stroke-opacity="null" d="m675.74,475.8c-2.67,-2.28 -5.54,-4.09 -7.9,-4.34c-0.13,0 -0.26,0 -0.4,0l-15.52,0c-0.25,0 -0.5,0.1 -0.67,0.24c-0.17,0.16 -0.28,0.37 -0.28,0.59l0,34.48c0,0.22 0.1,0.42 0.28,0.59c0.18,0.14 0.42,0.23 0.67,0.23l28.07,0c0.24,0 0.48,-0.1 0.66,-0.23c0.17,-0.17 0.28,-0.37 0.28,-0.59l0,-22.95c-0.1,-2.66 -2.44,-5.56 -5.19,-8l0,-0.02zm-1.33,1.17c1.23,1.05 2.34,2.24 3.17,3.39c-0.72,-0.25 -1.47,-0.44 -2.17,-0.58c-1.56,-0.3 -3.07,-0.42 -4.02,-0.48c0,-0.18 0,-0.37 0,-0.6c0,-1.16 -0.1,-2.82 -0.55,-4.28c0,0 0,0 0,-0.1c1.17,0.68 2.44,1.58 3.57,2.59l0,0.06zm4.63,28.95l-26.18,0l0,-32.83l14.58,0l0,0c0.63,-0.1 1.18,0.51 1.6,1.77c0.39,1.2 0.48,2.77 0.48,3.84c0,0.8 0,1.33 0,1.33l-0.1,0.88l1,0c0,0 2.32,0 4.59,0.48c2.18,0.41 3.89,1.23 4.04,2.17c0,0.1 0,0.16 0,0.24l0,22.11l-0.01,0.01z" id="svg_25"/>
  <text font-family="Helvetica, Arial, sans-serif" text-anchor="start" fill="#000000" stroke="#000000" stroke-width="0" transform="translate(12,90) scale(0.9887300133705139,1.0113999843597412) " stroke-opacity="null" fill-opacity="null" x="651.15021" y="401.170791" id="svg_26" font-size="13.01793px" xml:space="preserve">.gz</text>
  <text font-family="Helvetica, Arial, sans-serif" text-anchor="start" fill="#000000" stroke="#000000" stroke-width="0" stroke-opacity="null" fill-opacity="null" x="286.76" y="502.25" id="svg_33" font-size="18px" xml:space="preserve">4.コンテンツの圧縮版の作成</text>
  <text font-family="Helvetica, Arial, sans-serif" text-anchor="start" fill="#000000" stroke="#000000" stroke-width="0" stroke-opacity="null" fill-opacity="null" x="287.93" y="429.23" id="svg_34" font-size="18px" xml:space="preserve">3.コンテンツの更新</text>
  <path fill="#000000" stroke="#000000" stroke-width="1.5" stroke-opacity="null" d="m502.91,419.09c1.58,2.79 1.88,3.64 1.36,3.76c-1.02,0.23 -0.81,1.52 0.61,3.85c1.79,2.94 5.29,4.74 8.58,4.42c1.27,-0.13 2.71,-0.38 3.2,-0.57c0.49,-0.19 0.19,0.16 -0.66,0.78c-4.27,3.12 -9.53,2.9 -13.73,-0.56c-1.68,-1.38 -3.98,-5.42 -3.98,-6.97c0,-0.44 -0.38,-0.87 -0.85,-0.95c-0.76,-0.13 -0.66,-0.48 1.02,-3.47c1.02,-1.83 1.98,-3.46 2.13,-3.62c0.16,-0.16 1.2,1.34 2.32,3.33zm13.54,5.39c-1.57,-2.8 -1.88,-3.65 -1.36,-3.76c1.02,-0.23 0.82,-1.52 -0.61,-3.86c-1.79,-2.93 -5.28,-4.73 -8.57,-4.41c-1.28,0.12 -2.72,0.38 -3.21,0.57c-0.48,0.19 -0.18,-0.16 0.67,-0.79c4.26,-3.11 9.53,-2.9 13.73,0.57c1.67,1.38 3.98,5.42 3.98,6.97c0,0.44 0.38,0.87 0.84,0.95c0.76,0.13 0.66,0.48 -1.01,3.47c-1.02,1.83 -1.99,3.46 -2.14,3.62c-0.15,0.16 -1.2,-1.34 -2.32,-3.33z" id="svg_36"/>
  <path fill="#000000" stroke="#000000" stroke-width="1.5" stroke-opacity="null" d="m604.1,411.25l18.79,13.83l-18.79,13.84l0,-6.92l-18.87,0l0,-13.83l18.87,0l0,-6.92z" id="svg_41"/>
  <text font-family="Helvetica, Arial, sans-serif" text-anchor="start" fill="#000000" stroke="#000000" stroke-width="0" stroke-opacity="null" x="333.21" y="452.25" font-size="18px" xml:space="preserve" id="text4574"/>
  <text font-family="Helvetica, Arial, sans-serif" text-anchor="start" fill="#000000" stroke="#000000" stroke-width="0" id="text4653" stroke-opacity="null" x="286.21" y="454.25" font-size="12" xml:space="preserve">・git fetch --depth 1</text>
  <text font-style="normal" font-weight="normal" font-size="40px" font-family="'Yu Gothic'" fill="#000000" stroke-width="1px" id="text4572" y="83.811" x="60.979" xml:space="preserve">コンテンツデプロイとWebサーバーのしくみ（新）</text>
  <text font-family="Helvetica, Arial, sans-serif" text-anchor="start" fill="#000000" stroke="#000000" stroke-width="0" stroke-opacity="null" x="286.83" y="476.92" font-size="12" xml:space="preserve" id="text4574-1">・git reset --hard origin/master</text>
  <text font-family="Helvetica, Arial, sans-serif" text-anchor="start" fill="#000000" stroke="#000000" stroke-width="0" stroke-opacity="null" fill-opacity="null" x="184.86" y="249" id="svg_17-1" font-size="18px" xml:space="preserve">webhook</text>
  <text font-family="Helvetica, Arial, sans-serif" text-anchor="start" fill="#000000" stroke="#000000" stroke-width="0" stroke-opacity="null" x="286.37" y="526.15" font-size="12" xml:space="preserve" id="text4574-1-8">・webhookの更新情報をもとにgzip圧縮</text>
  <path fill="#000000" stroke="#000000" stroke-width="1.5" stroke-opacity="null" d="m607.1,476.25l18.79,13.83l-18.79,13.84l0,-6.92l-18.87,0l0,-13.83l18.87,0l0,-6.92z" id="svg_23"/>
  <path transform="rotate(-90 755.8699951171875,279.9299926757812) " stroke="#0000ff" fill="#0000ff" stroke-width="1.5" d="m764.62,280.02552l-8.75,39.90448l-8.75,-39.90448l4.37,0l0,-40.09552l8.75,0l0,40.09552l4.38,0z" id="svg_27"/>
  <text xml:space="preserve" text-anchor="start" font-family="Helvetica, Arial, sans-serif" font-size="18" id="svg_28" y="210.4375" x="766.5" stroke-opacity="null" stroke-width="0" stroke="#000000" fill="#0000ff">コンテンツのリクエスト</text>
  <path stroke="#0000ff" transform="rotate(90 668.6120605468751,344.8854370117188) " id="svg_32" d="m630.61213,344.88546l22.03369,-16.05605l0,8.02801l31.93258,0l0,-8.02801l22.03368,16.05605l-22.03368,16.05597l0,-8.02799l-31.93258,0l0,8.02799l-22.03369,-16.05597z" fill-opacity="null" stroke-opacity="null" stroke-width="1.5" fill="#0000ff"/>
  <text stroke="#000000" xml:space="preserve" text-anchor="start" font-family="Helvetica, Arial, sans-serif" font-size="12" id="svg_37" y="338.4375" x="705.5" stroke-opacity="null" stroke-width="0" fill="#0000ff">・UAが.gz圧縮転送をサポートしている場合</text>
  <text style="cursor: move;" xml:space="preserve" text-anchor="start" font-family="Helvetica, Arial, sans-serif" font-size="12" id="svg_38" y="359.4375" x="711.5" stroke-opacity="null" stroke-width="0" stroke="#000000" fill="#0000ff">.gzファイルを返す。</text>
  <text stroke="#000000" xml:space="preserve" text-anchor="start" font-family="Helvetica, Arial, sans-serif" font-size="12" id="svg_39" y="380.4375" x="705.5" stroke-opacity="null" stroke-width="0" fill="#0000ff">・UAが.gz圧縮転送をサポートしていない場合</text>
  <text xml:space="preserve" text-anchor="start" font-family="Helvetica, Arial, sans-serif" font-size="12" id="svg_42" y="401.4375" x="712.5" stroke-opacity="null" stroke-width="0" stroke="#000000" fill="#0000ff">未圧縮のコンテンツを返す</text>
  <text xml:space="preserve" text-anchor="start" font-family="Helvetica, Arial, sans-serif" font-size="14" id="svg_43" y="277.4375" x="283.5" fill-opacity="null" stroke-opacity="null" stroke-width="0" stroke="#000000" fill="#000000">HTTPS(HTTP/2)で動かす。</text>
  <path stroke="#0000ff" transform="rotate(90 750.8699951171876,245.43002319335943) " fill="#0000ff" stroke-width="1.5" d="m759.62,245.52194l-8.75,38.40806l-8.75,-38.40806l4.37,0l0,-38.59194l8.75,0l0,38.59194l4.38,0z" id="svg_44"/>
  <path fill="#000000" stroke="#000000" stroke-width="1.5" stroke-opacity="null" d="m687.3,400.34c-4.93,-3.72 -10.24,-6.7 -14.59,-7.11c-0.24,0 -0.49,0 -0.75,0l-28.67,0c-0.46,0 -0.91,0.14 -1.23,0.4c-0.32,0.25 -0.51,0.6 -0.51,0.96l0,56.63c0,0.35 0.18,0.69 0.51,0.95c0.33,0.26 0.76,0.4 1.23,0.4l51.85,0c0.46,0 0.9,-0.14 1.23,-0.4c0.33,-0.26 0.51,-0.6 0.51,-0.95l0,-37.69c-0.1,-4.37 -4.5,-9.14 -9.58,-13.14l0,-0.05zm-2.45,1.92c2.27,1.73 4.32,3.69 5.84,5.57c-1.32,-0.4 -2.7,-0.7 -4.01,-0.94c-2.86,-0.5 -5.67,-0.71 -7.41,-0.79c0,-0.29 0,-0.62 0,-0.98c0,-1.91 -0.15,-4.63 -1,-7.04c0,0 0,0 0,-0.1c2.16,1.11 4.51,2.58 6.6,4.24l-0.02,0.04zm8.55,47.54l-48.38,0l0,-53.91l26.95,0l0,0c1.17,-0.1 2.18,0.85 2.96,2.92c0.71,1.97 0.89,4.53 0.88,6.31c0,1.3 -0.1,2.18 -0.1,2.18l-0.14,1.43l1.85,0c0,0 4.28,0 8.47,0.78c4.03,0.68 7.18,2.03 7.47,3.56c0,0.13 0,0.27 0,0.4l0,36.31l0.04,0.02z" id="svg_45"/>
  <path fill="#000000" stroke="#000000" stroke-width="0.86117" stroke-opacity="null" d="m926.74,262.099426c-2.67,-2.28 -5.54,-4.09 -7.9,-4.34c-0.13,0 -0.26,0 -0.4,0l-15.52,0c-0.25,0 -0.5,0.1 -0.67,0.24c-0.17,0.16 -0.28,0.37 -0.28,0.59l0,34.48c0,0.22 0.1,0.42 0.28,0.59c0.18,0.14 0.42,0.23 0.67,0.23l28.07,0c0.24,0 0.48,-0.1 0.66,-0.23c0.17,-0.17 0.28,-0.37 0.28,-0.59l0,-22.95c-0.1,-2.66 -2.44,-5.56 -5.19,-8l0,-0.02zm-1.33,1.17c1.23,1.05 2.34,2.24 3.17,3.39c-0.72,-0.25 -1.47,-0.44 -2.17,-0.58c-1.56,-0.3 -3.07,-0.42 -4.02,-0.48c0,-0.18 0,-0.37 0,-0.6c0,-1.16 -0.1,-2.82 -0.55,-4.28c0,0 0,0 0,-0.1c1.17,0.68 2.44,1.58 3.57,2.59l0,0.06zm4.63,28.95l-26.18,0l0,-32.83l14.58,0l0,0c0.63,-0.1 1.18,0.51 1.6,1.77c0.39,1.2 0.48,2.77 0.48,3.84c0,0.8 0,1.33 0,1.33l-0.1,0.88l1,0c0,0 2.32,0 4.59,0.48c2.18,0.41 3.89,1.23 4.04,2.17c0,0.1 0,0.16 0,0.24l0,22.11l-0.01,0.01z" id="svg_46"/>
  <text font-family="Helvetica, Arial, sans-serif" text-anchor="start" fill="#000000" stroke="#000000" stroke-width="0" transform="translate(12,90) scale(0.9887300133705139,1.0113999843597412) " stroke-opacity="null" fill-opacity="null" x="905.011221" y="189.58289" id="svg_47" font-size="13.01793px" xml:space="preserve">.gz</text>
  <path fill="#000000" stroke="#000000" stroke-width="1.5" stroke-opacity="null" d="m849.3,241.34c-4.93,-3.72 -10.24,-6.7 -14.59,-7.11c-0.24,0 -0.49,0 -0.75,0l-28.67,0c-0.46,0 -0.91,0.14 -1.23,0.4c-0.32,0.25 -0.51,0.6 -0.51,0.96l0,56.63c0,0.35 0.18,0.69 0.51,0.95c0.33,0.26 0.76,0.4 1.23,0.4l51.85,0c0.46,0 0.9,-0.14 1.23,-0.4c0.33,-0.26 0.51,-0.6 0.51,-0.95l0,-37.69c-0.1,-4.37 -4.5,-9.14 -9.58,-13.14l0,-0.05zm-2.45,1.92c2.27,1.73 4.32,3.69 5.84,5.57c-1.32,-0.4 -2.7,-0.7 -4.01,-0.94c-2.86,-0.5 -5.67,-0.71 -7.41,-0.79c0,-0.29 0,-0.62 0,-0.98c0,-1.91 -0.15,-4.63 -1,-7.04c0,0 0,0 0,-0.1c2.16,1.11 4.51,2.58 6.6,4.24l-0.02,0.04zm8.55,47.54l-48.38,0l0,-53.91l26.95,0l0,0c1.17,-0.1 2.18,0.85 2.96,2.92c0.71,1.97 0.89,4.53 0.88,6.31c0,1.3 -0.1,2.18 -0.1,2.18l-0.14,1.43l1.85,0c0,0 4.28,0 8.47,0.78c4.03,0.68 7.18,2.03 7.47,3.56c0,0.13 0,0.27 0,0.4l0,36.31l0.04,0.02z" id="svg_48"/>
  <text xml:space="preserve" text-anchor="start" font-family="Helvetica, Arial, sans-serif" font-size="NaN" id="svg_49" y="280.4375" x="877.5" fill-opacity="null" stroke-opacity="null" stroke-width="0" stroke="#000000" fill="#0000ff">or</text>
  <text xml:space="preserve" text-anchor="start" font-family="'Yu Gothic'" font-size="12" id="svg_50" y="532.4375" x="590.5" fill-opacity="null" stroke-opacity="null" stroke-width="1px" stroke="#000000" fill="#000000">コンテンツは非圧縮</text>
  <path fill="#000000" stroke="#000000" stroke-width="1.5" stroke-opacity="null" d="m343.76,310.02l18.79,13.83l-18.79,13.83l0,-6.91l-18.88,0l0,-13.84l18.88,0l0,-6.91z" id="svg_6" transform="rotate(90 343.7149963378906,323.84997558593756) "/>
  <text fill="#ff0000" stroke="#000000" stroke-width="0" stroke-opacity="null" fill-opacity="null" x="364.5" y="329.4375" id="svg_12" font-size="18px" font-family="Helvetica, Arial, sans-serif" text-anchor="start" xml:space="preserve">ルーティング</text>
  <path fill="#000000" stroke="#000000" stroke-width="1.5" stroke-opacity="null" d="m224.76,259.02l18.79,13.83l-18.79,13.83l0,-6.91l-18.88,0l0,-13.84l18.88,0l0,-6.91z" id="svg_16"/>
  <text fill="#000000" stroke="#000000" stroke-width="1px" x="592.5" y="551.4375" id="svg_18" font-size="12" font-family="'Yu Gothic'" text-anchor="start" xml:space="preserve">と圧縮版の2種類</text>
 </g>
</svg>