<?xml version="1.0" encoding="UTF-8" standalone="no"?>
<svg
   xmlns:dc="http://purl.org/dc/elements/1.1/"
   xmlns:cc="http://creativecommons.org/ns#"
   xmlns:rdf="http://www.w3.org/1999/02/22-rdf-syntax-ns#"
   xmlns:svg="http://www.w3.org/2000/svg"
   xmlns="http://www.w3.org/2000/svg"
   version="1.1"
   id="svg2"
   viewBox="0 0 1536 952"
   height="952"
   width="1536">
  <defs
     id="defs4" />
  <metadata
     id="metadata7">
    <rdf:RDF>
      <cc:Work
         rdf:about="">
        <dc:format>image/svg+xml</dc:format>
        <dc:type
           rdf:resource="http://purl.org/dc/dcmitype/StillImage" />
        <dc:title></dc:title>
      </cc:Work>
    </rdf:RDF>
  </metadata>
  <g
     transform="translate(0,-100.36219)"
     id="layer1">
    <path
       d="m 1364.7147,231.12372 c 1.225,-1.225 -9.3694,-9.61867 -12.1406,-9.61867 -3.658,0 -7.297,7.87887 -4.8241,10.44491 0.8096,0.84008 16.0401,0.0983 16.9647,-0.82624 z M 1334,351.11351 l -8.6303,-0.0251 c 0,0 1.6865,-6.58333 -1.2422,-6.58333 -3.1015,0 -3.8404,-0.45433 -5.0003,-3.07469 -0.7485,-1.69108 -2.4334,-3.56332 -3.7441,-4.16052 -1.3107,-0.5972 -2.3831,-1.58786 -2.3831,-2.20146 0,-0.61361 -4.275,-5.13031 -9.5,-10.03713 -8.2249,-7.72401 -9.5,-9.35812 -9.5,-12.17462 0,-11.87648 -4.7502,-20.17421 -15.0963,-26.37043 -14.3599,-8.60002 -22.1403,-19.8727 -20.3399,-29.46964 0.5083,-2.70942 0.3261,-3.51151 -0.7975,-3.51151 -2.0764,0 -4.9891,3.524 -5.3071,6.42089 -0.4792,4.36551 -1.3438,4.86735 -7.4346,4.31506 -3.1356,-0.28433 -6.5763,-1.06354 -7.646,-1.73158 -1.6385,-1.02326 -2.843,-0.72872 -7.6457,1.8696 -8.683,4.6977 -16.6342,10.01798 -22.9039,15.3254 -4.4833,3.79519 -6.4252,4.80063 -9.2715,4.80063 -2.9726,0 -3.8078,-0.47948 -4.79,-2.75 -0.6543,-1.5125 -2.2197,-4.02203 -3.4786,-5.57673 -1.2589,-1.55469 -2.2889,-3.30107 -2.2889,-3.88084 0,-1.05077 4.7877,-0.64067 8.1735,0.70013 1.2455,0.49321 3.2149,-1.21141 7.7002,-6.66493 3.3147,-4.03019 7.8197,-8.42815 10.0111,-9.77323 2.1913,-1.34508 4.2119,-3.31602 4.4901,-4.37988 0.2983,-1.14084 1.0753,-1.71574 1.8942,-1.40151 0.7636,0.29303 3.387,0.15938 5.8299,-0.29699 2.4428,-0.45637 10.0574,-1.33634 16.9212,-1.95549 14.9133,-1.34523 18.9814,-2.3151 22.6843,-5.40818 4.7323,-3.95284 15.1609,-8.84286 20.0288,-9.39153 2.5453,-0.2869 10.7013,0.31929 18.1245,1.34708 10.3833,1.43764 13.5903,1.58768 13.9028,0.65041 0.5007,-1.5023 3.9383,-1.56783 7.9984,-0.15247 1.6816,0.58621 4.7863,0.92371 6.8992,0.75 l 3.8418,-0.31584 -3.1891,-3.33462 c -4.1021,-4.28924 -4.8429,-7.79522 -2.7516,-13.02208 0.9109,-2.27658 1.3809,-4.8568 1.0443,-5.73381 -0.4085,-1.06472 0.054,-1.76872 1.3923,-2.11866 1.3368,-0.3496 2.0288,-1.40088 2.0783,-3.15746 0.2052,-7.28899 10.5212,-19.73774 19.7314,-23.81095 5.1123,-2.26089 5.3368,-2.50761 3.8132,-4.19111 -1.6551,-1.82885 -2.1746,-7.753 -0.8535,-9.73161 2.5412,-3.80572 15.2347,-5.63363 15.2347,-2.19384 0,0.54553 0.7066,2.48094 1.5702,4.30089 0.8637,1.81996 1.4262,4.81297 1.25,6.65113 -0.2749,2.86938 -0.9921,3.67538 -5.0702,5.69821 l -4.75,2.3561 0,5.27909 c 0,5.44319 -1.1206,8.95913 -4.4012,13.80849 -1.8766,2.77404 -1.8722,2.84642 0.4824,7.87367 3.1855,6.80104 10.9188,12.69841 10.9188,8.32656 0,-0.825 0.8,-1.5 1.7778,-1.5 0.9777,0 2.5483,-0.9 3.4902,-2 0.9418,-1.1 2.942,-2 4.4447,-2 l 2.7323,0 -2.2225,-1.5567 c -3.1267,-2.19001 -2.7617,-3.50115 0.7775,-2.7933 1.9111,0.38222 3,0.19167 3,-0.525 0,-0.61875 -0.45,-1.125 -1,-1.125 -0.55,0 -1,-0.44468 -1,-0.98818 0,-0.5435 1.8,-1.27602 4,-1.62781 4.2647,-0.68195 5.1025,-1.74264 2.25,-2.84844 -1.6309,-0.63224 -1.6179,-0.77564 0.1911,-2.10699 1.0677,-0.78572 3.6286,-1.42858 5.691,-1.42858 2.0624,0 4.0601,-0.50191 4.4392,-1.11536 1.092,-1.76694 8.7946,-0.42957 14.9935,2.60326 3.668,1.7946 10.0133,6.91568 18.4301,14.87448 10.8781,10.28612 12.6435,12.36643 11.5727,13.63762 -0.695,0.825 -1.5025,2.18229 -1.7945,3.01621 -0.292,0.83392 -1.7066,2.1454 -3.1435,2.91441 -2.7295,1.46082 -3.3114,1.3081 -9.6296,-2.52747 -1.9654,-1.19311 -4.4702,-1.39474 -11.7129,-0.94284 -15.6206,0.97465 -14.7918,0.5125 -19.6808,10.97465 -3.2655,6.98792 -4.4426,10.89363 -4.9596,16.45626 -0.537,5.77862 -1.2989,8.19633 -3.6675,11.639 -1.6443,2.38991 -2.616,4.57619 -2.1594,4.8584 0.4566,0.2822 5.0714,0.81847 10.2552,1.19169 11.1205,0.80068 15.6533,2.35412 16.3512,5.60379 1.4383,6.69688 2.1197,32.2059 0.9633,36.0659 -0.7189,2.39955 -2.6244,2.1933 -5.2152,-0.56445 -2.6951,-2.86882 -2.7178,-3.88371 -0.139,-6.21747 1.1872,-1.07441 1.7828,-2.4932 1.4294,-3.40498 -0.3332,-0.85971 -0.7021,-5.67521 -0.8199,-10.70112 -0.245,-10.4608 -1.2184,-12.36198 -6.3293,-12.36198 -5.4674,0 -22.3155,4.18834 -22.3155,5.54751 0,0.66636 1.9682,2.82438 4.3738,4.7956 5.7392,4.70283 6.3287,7.10823 2.6449,10.79208 -1.5757,1.57565 -3.5873,2.86481 -4.4703,2.86481 -0.883,0 -4.2798,1.35 -7.5484,3 -9.1839,4.636 -11.5048,3.99018 -18.3082,-5.09439 -3.3601,-4.48683 -3.3943,-5.90561 -0.1421,-5.90561 4.1745,0 8.726,2.83783 8.1407,5.07575 -0.4252,1.62606 0.035,1.92425 2.9678,1.92425 4.1564,0 12.976,-3.60423 13.749,-5.61869 0.6328,-1.64917 -2.0002,-2.95787 -13.9072,-6.91251 -4.4,-1.46135 -10.25,-2.76884 -13,-2.90553 -17.5972,-0.87468 -33.6517,-3.06141 -40.7002,-5.54363 -2.8935,-1.01898 -5.5643,-1.66517 -5.9352,-1.43598 -0.6316,0.39039 -0.2681,6.27669 0.6808,11.02413 0.4563,2.28275 5.2283,4.47398 13.9546,6.40764 9.9962,2.21508 13.7621,3.33378 17.3079,5.14153 1.9882,1.01367 4.1603,1.84304 4.8268,1.84304 1.7495,0 7.3653,4.94223 7.3653,6.4819 0,1.65753 -2.2415,2.5181 -6.5587,2.5181 -2.4788,0 -3.819,-0.64674 -4.9652,-2.39607 -0.9174,-1.40022 -2.9012,-2.61458 -4.773,-2.92181 -1.7617,-0.28915 -5.6781,-1.26965 -8.7031,-2.17887 -7.2268,-2.17216 -17.9372,-4.50325 -20.6906,-4.50325 -3.3352,0 -3.669,1.62578 -1.3269,6.46382 2.2974,4.74593 9.0784,11.53618 11.5204,11.53618 0.8234,0 0.1638,1.62122 0.1638,1.62122 l 7.6759,7.96955 c 0,0 3.3603,1.32289 5.8957,2.80875 0,0 5.8632,2.03204 7.6837,9.63778 z"
       style="fill:#000000"
       id="horse03" />
    <path
       d="m 983.49996,720.50506 c 0.3399,-0.55 1.4915,-1 2.559,-1 3.7706,0 1.861,-1.71544 -4.8337,-4.34201 -3.7262,-1.4619 -7.06537,-2.65799 -7.42057,-2.65799 -0.3552,0 -0.9598,1.42961 -1.3435,3.17691 -0.5391,2.45442 -0.2863,3.47779 1.1116,4.5 2.1191,1.54949 9.03017,1.77442 9.92717,0.32309 z m -50.86624,119.09989 1.22757,-4.01744 c 1.04268,-3.41237 2.4256,-4.70064 2.3903,-9.13961 -0.023,-2.93199 0.5647,-3.96348 3.3456,-5.86897 1.8556,-1.27149 3.156,-2.66421 2.8898,-3.09493 -0.2662,-0.43073 1.0662,-1.69778 2.9609,-2.81568 3.5738,-2.10863 9.5521,-9.48004 9.5521,-11.77811 0,-0.72313 -0.9,-1.79645 -2,-2.38515 -1.1,-0.5887 -2,-1.68551 -2,-2.43736 0,-1.48903 4.9643,-3.56264 8.5291,-3.56264 1.5394,0 3.5447,-1.74046 6.4712,-5.61657 4.6915,-6.21389 4.386,-7.3395 -2.0003,-7.36894 -5.2967,-0.0244 -16.6883,-2.62237 -28.5815,-6.5183 -5.8701,-1.9229 -11.7254,-3.49619 -13.0119,-3.49619 -2.8709,0 -19.6325,14.62505 -19.2006,16.7532 0.327,1.61097 11.463,7.93127 16.5821,9.41122 2.6995,0.78047 3.7286,1.94689 5.75,6.51752 1.354,3.06181 2.4619,6.38437 2.4619,7.38347 0,0.99911 0.45,2.09467 1,2.43459 2.2458,1.38797 0.7429,2.5 -3.3787,2.5 -3.8978,0 -4.5117,-0.32132 -5.5907,-2.92628 -0.6667,-1.60946 -0.9153,-3.86167 -0.5524,-5.00493 0.4737,-1.49249 0.1468,-2.26027 -1.1592,-2.72273 -1.0005,-0.35425 -2.7435,-1.47279 -3.8734,-2.48566 -2.6789,-2.40137 -13.1325,-6.62679 -18.5295,-7.48981 l -4.2454,-0.67887 1.6646,2.37665 c 1.2275,1.75236 1.6647,4.55092 1.6647,10.65414 0,7.41132 -0.1952,8.27749 -1.8651,8.27749 -3.409,0 -7.1349,-3.85001 -7.1349,-7.37258 0,-1.77508 0.54,-3.76742 1.2,-4.42742 0.9333,-0.93333 0.9333,-1.46667 0,-2.4 -0.66,-0.66 -1.2017,-2.1225 -1.2037,-3.25 -0.01,-3.19773 -3.496,-8.16086 -10.0995,-14.36183 -7.2562,-6.81397 -8.3257,-8.51825 -6.9538,-11.08172 0.7181,-1.34169 2.9609,-2.23268 7.6954,-3.05717 3.6751,-0.63999 8.0146,-1.8527 9.6432,-2.69491 l 2.9612,-1.53128 -4.0633,-4.16155 c -5.8694,-6.01129 -7.8016,-12.76205 -5.0985,-17.81293 1.438,-2.68685 0.376,-3.57217 -1.8588,-1.54965 -0.9846,0.89102 -4.281,2.7216 -7.3253,4.06795 -3.0444,1.34635 -7.2456,3.6086 -9.336,5.02722 -2.0905,1.41862 -6.3343,3.31183 -9.4309,4.20713 -3.0965,0.8953 -7.4793,2.47628 -9.7395,3.51328 -4.7194,2.16527 -9.8785,2.39588 -15.7745,0.70513 -5.2757,-1.51289 -5.24,-1.47263 -3.2492,-3.67248 1.6037,-1.77203 1.4955,-2.03426 -2.1687,-5.25613 -2.121,-1.86508 -4.7208,-3.9271 -5.7773,-4.58225 -1.8564,-1.15126 -1.8495,-1.19317 0.2068,-1.25 1.1701,-0.0323 2.6541,-0.69327 3.2976,-1.46871 0.9267,-1.1166 0.7168,-1.72744 -1.009,-2.93623 -3.2173,-2.25353 -1.8147,-4.09748 4.6679,-6.13651 7.1727,-2.2561 26.6593,-2.79972 33.7078,-0.94037 4.1269,1.08866 6.0902,1.006 14.027,-0.5906 10.1174,-2.03527 18.0536,-4.45369 21.2315,-6.46997 1.1277,-0.7155 4.8566,-2.08829 8.2864,-3.05065 6.9734,-1.95665 12.6002,-1.69308 29.6632,1.38951 11.0775,2.00124 13.1417,1.84917 14.0572,-1.03557 0.3902,-1.22938 1.1857,-1.74862 2.1261,-1.38777 0.8264,0.31713 2.6508,0.8648 4.0543,1.21706 2.3775,0.5967 2.5045,0.4516 1.8583,-2.123 -1.1471,-4.5702 0.4045,-16.526 2.1446,-16.526 1.1493,0 1.3362,-0.77786 0.8322,-3.46419 -1.1654,-6.21214 5.9695,-17.11315 15.3865,-23.50812 6.3635,-4.32133 7.0795,-5.54767 4.3883,-7.51552 -1.0554,-0.77178 -1.6877,-2.75062 -1.75,-5.47738 -0.1219,-5.33965 2.5499,-7.56356 10.18717,-8.47926 l 5.2847,-0.63362 1.4501,3.47066 c 0.7976,1.90887 1.8694,3.72975 2.3817,4.0464 1.1366,0.70245 0.7256,6.07576 -0.7483,9.7831 -0.6099,1.53418 -2.1341,2.98607 -3.4925,3.32704 -2.2271,0.55896 -2.4104,1.0825 -2.4104,6.88587 0,3.95556 -0.7867,8.38361 -2.125,11.96047 -1.1687,3.12377 -2.125,5.83258 -2.125,6.01958 0,0.18701 2.5267,2.42013 5.6149,4.96249 4.924,4.05378 6.1968,4.62248 10.345,4.62248 5.29244,0 7.41894,-1.60346 8.62044,-6.5 1.2516,-5.10085 3.38,-7.3365 9.9315,-10.43197 3.4738,-1.6413 6.9987,-3.9588 7.8331,-5.15 1.3376,-1.9098 2.0866,-2.08231 6.336,-1.45929 7.5603,1.10844 12.2776,3.68889 20.3535,11.13349 4.1214,3.79927 10.1193,9.22997 13.3286,12.0682 5.3572,4.73763 5.7797,5.41347 5.1569,8.24876 -1.2176,5.54371 -6.5057,7.54357 -12.1556,4.59697 -1.5754,-0.82161 -3.672,-1.49661 -4.6592,-1.5 -2.8979,-0.01 -22.0515,4.94029 -23.0749,5.96367 -0.515,0.51496 -2.1305,3.99491 -3.59,7.73322 -1.4596,3.73832 -5.3884,11.08608 -8.7307,16.32834 -4.1818,6.55902 -6.4432,11.2959 -7.2516,15.18954 -1.4401,6.93719 -6.5021,12.69676 -12.82344,14.59067 -2.311,0.6924 -4.6379,2.07367 -5.1709,3.06949 -0.5329,0.99582 -0.8182,6.86245 -0.6338,13.03696 l 0.3352,11.22638 -3.295,1.57127 c -3.0595,1.45896 -3.9625,1.41756 -12.63247,-0.57913 -12.204,-2.81057 -14.196,-2.7411 -17.297,0.60321 -1.3973,1.50688 -2.5405,2.97752 -2.5405,3.26808 0,0.29056 -2.7,3.43702 -6,6.99214 -3.3,3.55513 -6,7.02064 -6,7.70114 0,0.68051 0.9191,3.00059 2.0424,5.15574 l 2.0424,3.91846 c 12.81626,1.43565 -14.45107,1.32455 -14.45107,1.32455 z"
       style="fill:#000000"
       id="horse10" />
    <path
       d="m 232.98366,721.94059 c 3.78316,-0.86047 7.41459,-2.21047 8.06985,-3 0.65526,-0.78954 2.48628,-1.43553 4.06893,-1.43553 1.58266,0 2.87756,-0.47928 2.87756,-1.06507 0,-1.5641 -14.84028,-8.16041 -19.5,-8.6675 -3.85607,-0.41962 -4.08084,-0.27934 -6.2466,3.89864 -1.92119,3.70618 -2.09544,4.8771 -1.203,8.08393 1.21433,4.36345 1.84766,4.47945 11.93326,2.18553 z M 213.5,837.00507 c 0,-1.21832 -1.17252,-2.59312 -3,-3.51755 -5.433,-2.74829 -5.41036,-2.71312 -4.33784,-6.74031 0.54814,-2.05818 1.52339,-4.19215 2.16723,-4.74215 2.09381,-1.78865 7.54215,-11.37521 8.56005,-15.06176 0.54591,-1.97712 2.14411,-5.10451 3.55156,-6.94977 1.40745,-1.84527 2.559,-3.72613 2.559,-4.1797 0,-0.45358 1.12262,-2.93352 2.49471,-5.51098 1.52279,-2.86055 2.10264,-4.92861 1.48835,-5.30826 -0.55349,-0.34208 -6.58552,-1.04427 -13.4045,-1.56042 -7.15741,-0.54177 -15.28953,-1.82711 -19.23836,-3.04077 -7.83767,-2.40888 -20.8425,-8.27402 -21.80724,-9.83501 -0.35805,-0.57933 -3.3568,-1.05333 -6.66391,-1.05333 -4.66824,0 -7.00316,0.58033 -10.44098,2.59502 -2.43544,1.42726 -4.42807,2.99071 -4.42807,3.47432 0,1.77728 -5.74027,3.67104 -15,4.94861 -8.18896,1.12983 -11.31987,2.18506 -22.68712,7.64638 -7.25292,3.48462 -13.571733,6.33567 -14.041813,6.33567 -0.47007,0 -4.57362,2.28865 -9.11899,5.0859 -10.55044,6.49279 -12.10308,6.8905 -20.994841,5.37777 -8.73441,-1.48595 -10.65366,-2.84702 -7.45191,-5.28465 6.52342,-4.96657 11.14129,-7.16001 13.92329,-6.61343 1.596841,0.31374 4.424951,-0.0987 6.371381,-0.92906 4.65206,-1.98471 12.25566,-9.93577 15.43137,-16.13653 4.669563,-9.11759 4.462513,-8.99486 14.628863,-8.67192 13.25904,0.42116 12.6971,0.89566 12.55768,-10.60354 -0.10684,-8.81112 0.13318,-10.16962 2.55525,-14.46301 4.80817,-8.52302 -1.23111,-7.56441 -14.44285,2.2925 -6.78684,5.06348 -11.08337,7.46061 -16.230313,9.0553 -14.54297,4.50586 -21.144151,3.63634 -29.083981,-3.831 -2.79437,-2.62808 -6.31674,-5.67833 -7.82748,-6.77833 -3.61529,-2.63237 -3.73451,-5.17593 -0.34061,-7.26735 2.7324,-1.6838 2.76529,-1.6723 5.8228,2.03699 3.48763,4.23111 5.08795,4.61585 7.0573,1.69669 l 1.37197,-2.03366 7.909961,2.03366 c 4.35048,1.11852 9.17116,2.03367 10.71262,2.03367 1.54146,0 7.68429,-2.6642 13.650743,-5.92045 8.72692,-4.7628 12.30274,-6.13892 18.28739,-7.03773 4.09161,-0.61451 9.68929,-1.52348 12.43929,-2.01994 9.70981,-1.75293 23.96026,-1.17858 35.32224,1.42362 15.88032,3.63703 21.00205,4.15513 22.46929,2.27292 0.93165,-1.19514 2.23926,-1.39444 5.70847,-0.87004 5.02602,0.75973 9,0.41791 9,-0.77413 0,-0.43265 -1.575,-2.84936 -3.5,-5.37046 -3.93627,-5.15518 -4.17326,-6.50117 -1.91392,-10.87026 0.87235,-1.68693 1.3642,-3.91565 1.09301,-4.9527 -0.2712,-1.03705 0.0972,-2.22198 0.81873,-2.63319 1.71811,-0.9792 2.09107,-3.08715 1.16653,-6.59308 -1.43584,-5.44483 9.25191,-18.08817 18.58565,-21.98634 2.0625,-0.86139 3.75,-1.95491 3.75,-2.43004 0,-0.47513 -1.17116,-3.29157 -2.60258,-6.25876 l -2.60257,-5.39488 2.19973,-1.78124 c 2.75025,-2.22701 9.36122,-4.26448 11.35478,-3.49948 1.85276,0.71097 4.95422,7.0613 5.16947,10.58464 0.2155,3.52732 -1.99991,7.74258 -4.39898,8.36995 -1.65495,0.43278 -1.87728,1.13117 -1.42755,4.4842 0.30811,2.29714 -0.14714,6.31015 -1.0798,9.51839 -0.88687,3.05075 -1.6125,6.39887 -1.6125,7.44027 0,2.73611 12.12334,12.07194 17.56713,13.52793 3.57018,0.95488 5.11985,0.93001 7.70122,-0.12358 1.77741,-0.72546 4.80239,-1.9027 6.72218,-2.61609 2.62706,-0.97621 3.53904,-1.92813 3.68661,-3.84805 0.26616,-3.46279 4.22988,-8.61004 6.76092,-8.77967 1.13407,-0.076 3.41194,-0.1885 5.06194,-0.25 1.65,-0.0615 3.95601,-0.65991 5.12447,-1.32981 1.54485,-0.8857 3.68438,-0.96413 7.84192,-0.28747 6.89467,1.12214 13.8962,6.02989 18.4146,12.90779 1.66123,2.52872 6.6426,8.14604 11.06972,12.48293 4.50451,4.41272 8.04929,8.72648 8.04929,9.79546 0,4.72227 -8.13951,8.76597 -10.9145,5.42231 -2.33396,-2.81225 -10.67924,-4.60302 -21.45082,-4.60302 -11.71426,0 -10.86951,-0.4579 -16.85696,9.13737 -1.49726,2.39945 -5.25677,7.96263 -8.35448,12.36263 l -5.63219,8 0.47644,6.82672 c 0.42697,6.11771 0.83861,7.20823 3.96353,10.5 1.91789,2.0203 5.463,6.34601 7.87803,9.61268 6.62641,8.96319 22.48679,25.58148 27.82565,29.15533 1.96092,1.31265 4.69668,3.29946 6.07948,4.41513 1.41564,1.14218 4.76646,2.29526 7.66885,2.63901 5.64149,0.66815 5.97243,1.68093 1.99364,6.10114 -2.71871,3.02034 -9.67667,3.25147 -9.67667,0.32143 0,-2.94586 -2.76463,-5.07143 -6.59618,-5.07143 -2.6566,0 -3.65418,-0.5191 -4.32391,-2.25001 -0.47883,-1.2375 -2.39653,-3.6 -4.26157,-5.25 -1.86504,-1.65 -4.04964,-3.94297 -4.85466,-5.0955 -0.80502,-1.15252 -2.64784,-2.72752 -4.09515,-3.5 -1.4473,-0.77247 -6.6223,-5.15874 -11.5,-9.74726 -6.11614,-5.75355 -11.2744,-9.55917 -16.62054,-12.26217 l -7.752,-3.91941 -6.0967,1.76217 c -4.90976,1.4191 -6.70262,2.54091 -9.20901,5.76217 -1.71177,2.2 -5.07861,6.22649 -7.48187,8.94776 -2.40325,2.72128 -5.23476,6.64373 -6.29224,8.71657 -1.05749,2.07284 -2.82123,4.24968 -3.91944,4.83742 -1.0982,0.58774 -1.99673,1.65804 -1.99673,2.37845 0,0.7204 -0.9,2.12431 -2,3.1198 -1.1,0.99549 -2,2.42134 -2,3.16856 0,0.74722 -0.51583,2.18455 -1.14629,3.19409 -2.01935,3.2335 -0.26451,6.72401 4.50842,8.96755 2.40988,1.13278 6.65014,7.09272 6.97835,7.94803 2.40507,0.12759 0,0 -7.39376,0.73857 -10.26056,1.2533 -5.44672,-4.01682 -5.44672,-4.01682 z"
       style="fill:#000000"
       id="horse08" />
    <path
       d="m 1271.6929,835.34496 c 1.5963,-1.32482 0.8145,-2.69648 -2.1874,-3.83782 -1.849,-0.70298 -2.4415,-1.91704 -3.0201,-6.18832 -0.396,-2.92258 -1.3513,-6.54655 -2.1229,-8.05329 -0.7717,-1.50674 -1.3554,-2.97574 -1.2973,-3.26444 0.2846,-1.41314 -1.3399,-8.54776 -2.0455,-8.98389 -1.3234,-0.81786 -2.0692,3.98686 -2.1149,13.62333 -0.038,8.07413 0.1861,9.23987 2.0261,10.52867 1.138,0.7971 2.0691,1.95082 2.0691,2.56382 0,3.36597 5.9903,5.85495 8.6929,3.61194 z m 93.705,-0.15715 c 0.906,-1.49394 0.6261,-2.2056 -1.5732,-4 -2.5263,-2.0611 -2.7098,-2.80447 -3.2927,-13.33824 -0.3396,-6.13551 -1.0482,-12.65754 -1.5747,-14.49339 -0.5265,-1.83586 -0.9598,-4.9159 -0.9629,-6.84453 -0.01,-5.03354 -1.9439,-11.45714 -3.1034,-10.29763 -0.5218,0.52181 -1.4115,3.83827 -1.9772,7.36989 -1.0231,6.38789 -1.8343,10.3481 -4.3034,21.00697 -1.7786,7.67812 -0.7213,15.25787 2.5904,18.56957 4.2218,4.22178 12.1772,5.35782 14.1971,2.02736 z m -48.168,2.18341 c 24.3277,0.0704 26.8095,-0.0773 27.6149,-1.64438 1.2223,-2.37815 0.3809,-4.18549 -2.4497,-5.26165 -2.8102,-1.06844 -2.9657,-2.84589 -0.8358,-9.55121 0.8577,-2.69991 1.7133,-8.73393 1.9016,-13.40893 0.1882,-4.675 0.6692,-13.10931 1.069,-18.74292 0.4963,-6.99576 0.3776,-10.66356 -0.3745,-11.56979 -0.7418,-0.89388 -4.1286,-1.40105 -10.3783,-1.55418 -18.8815,-0.46265 -31.6578,-3.82682 -42.2749,-11.13162 -5.8758,-4.04263 -8.4455,-3.68757 -10.8454,1.49851 -1.0181,2.2 -2.8773,5.125 -4.1317,6.5 -3.3182,3.63727 -4.3491,6.03255 -6.025,13.9994 -2.5308,12.03129 -1.1692,31.73153 2.443,35.34365 0.5813,0.58132 1.0569,1.85196 1.0569,2.82363 0,0.97166 1.4625,3.27147 3.25,5.11068 1.7875,1.83921 4.2949,4.59487 5.5719,6.12369 1.8857,2.25735 2.8252,2.64889 5,2.08369 1.473,-0.38278 14.7066,-0.66114 29.408,-0.61857 z m -63.3893,1.52671 c 1.3761,-0.85046 1.2937,-6.88134 -1.8409,-10.39234 -3.0392,-3.40414 -3.7137,-5.44089 -2.1266,-6.42179 0.9847,-0.60858 3.6801,-26.35804 2.8464,-27.19177 -0.2954,-0.29535 -0.1316,-1.95076 0.364,-3.67869 0.8055,-2.80872 0.3359,-4.04605 -4.4313,-11.67472 -8.67,-13.87414 -9.404,-15.27619 -11.0099,-21.03304 -2.6438,-9.47677 -3.0136,-16.21197 -1.2276,-22.35549 2.5153,-8.65234 6.1397,-10.75236 28.085,-16.27283 11.7129,-2.94645 16.1023,-2.85557 27.9904,0.57952 9.2194,2.66395 11.2931,2.96746 13.2219,1.93516 1.6304,-0.87254 2.2877,-2.11749 2.2877,-4.33283 0,-1.70969 0.7424,-4.16839 1.6497,-5.4638 1.5571,-2.22307 1.5356,-2.44606 -0.383,-3.97251 -3.7815,-3.00864 -4.2579,-5.26478 -3.3247,-15.74303 1.0613,-11.9168 1.1973,-12.28664 5.5599,-15.12025 4.1564,-2.6997 5.3196,-6.24304 3.0929,-9.4221 -1.9758,-2.82086 -2.0817,-9.18283 -0.1792,-10.76182 0.8287,-0.68771 3.7716,-1.04946 7.0974,-0.87244 5.6428,0.30034 5.6912,0.32976 7.0453,4.28155 1.978,5.77227 1.5546,10.28694 -1.1655,12.42657 -3.0645,2.41053 -3.9388,6.31386 -2.0718,9.25011 0.8197,1.2893 2.0446,5.04419 2.7218,8.34419 1.5919,7.7567 3.5482,9.5 10.6603,9.5 5.3501,0 11.2361,2.72748 9.5419,4.42162 -0.3779,0.37792 -0.1012,1.04922 0.6149,1.49179 2.0145,1.24506 -5.6483,3.8964 -10.3599,3.5845 -2.2,-0.14564 -4.675,-0.42974 -5.5,-0.63135 -1.9143,-0.46781 -2.6413,4.65576 -0.9498,6.69391 1.5133,1.82345 5.354,1.8623 6.8422,0.0692 0.6255,-0.75367 2.9655,-1.61554 5.2,-1.91525 5.3291,-0.71478 7.8941,-3.07051 7.4202,-6.81491 -0.3265,-2.5796 -0.066,-2.89952 2.3573,-2.89952 3.2751,0 8.9093,-5.48335 12.016,-11.69428 1.1538,-2.30685 4.4264,-6.52279 7.2724,-9.36876 4.4712,-4.47125 5.0159,-5.4283 4.0081,-7.04215 -3.1591,-5.05846 0.2304,-8.74957 4.4201,-4.81351 2.6394,2.47955 9.626,6.77804 15.4135,9.48309 4.0009,1.87002 13.767,7.54958 19.1514,11.13769 4.8632,3.24078 6.0484,8.39184 2.7411,11.91238 -2.2886,2.43606 -6.2808,3.1843 -7.3925,1.38554 -1.4361,-2.32363 -7.9166,-0.72027 -24.1344,5.97116 -1.6794,0.69288 -2.3833,2.30926 -3.3013,7.58073 -0.6417,3.68504 -2.3147,10.13088 -3.7177,14.32409 -1.6513,4.93516 -2.7975,11.17431 -3.25,17.69052 -0.7232,10.41443 -1.7918,13.14195 -6.9887,17.83849 -1.1593,1.04774 -2.1079,3.11195 -2.1079,4.58713 0,1.47517 -0.622,6.91793 -1.3823,12.09501 -1.5086,10.27297 -1.2257,30.77223 0.5155,37.34412 0.5728,2.16218 2.2008,5.45121 3.6178,7.30895 4.7027,6.1656 6.2512,6.49859 28.6467,6.16035 30.535,-0.46116 33.1346,0.9738 32.0523,2.00185 -1.5266,1.45006 -6.6281,1.99354 -38.95,2.62478 -16.5,0.32225 -36.975,0.79402 -45.5,1.04838 -8.525,0.25436 -33.778,0.65541 -56.1178,0.89122 -22.3397,0.23582 -41.6897,0.6826 -43,0.99285 -1.3102,0.31025 -4.7447,0.17596 -7.6322,-0.29842 0,0 -35.329,-1.44106 13.5909,-4.76885 z"
       style="fill:#000000"
       id="horse011" />
    <path
       id="path3781"
       d="m 1257.9944,774.75505 c -0.01,-3.21113 -1.9535,-8.70739 -4.508,-12.75 l -2.5276,-4 0.5203,3.5 c 0.2861,1.925 0.7137,4.72685 0.9501,6.22634 0.485,3.07644 3.5931,8.77366 4.7864,8.77366 0.4314,0 0.7819,-0.7875 0.7788,-1.75 z"
       style="fill:#000000" />
    <path
       id="path3779"
       d="m 668.74999,726.99021 c 2.3375,-0.36352 4.25,-1.07139 4.25,-1.57305 0,-1.01808 -7.9532,-1.251 -10.4182,-0.30511 -2.2131,0.84926 -2.0572,3.66207 0.1682,3.03345 0.9625,-0.27189 3.6625,-0.79177 6,-1.15529 z"
       style="fill:#000000" />
    <path
       d="m 614.95389,723.5875 c 5.336,-2.16347 6.0975,-3.60174 2.3985,-4.53014 -1.5042,-0.37752 -5.3588,-1.98826 -8.5658,-3.57944 -3.207,-1.59118 -6.4493,-2.65578 -7.205,-2.36577 -3.0613,1.1747 -2.0871,10.85084 1.1785,11.70553 3.6163,0.94647 7.8882,0.5155 12.1938,-1.23018 z m 6.0462,115.39934 c -3e-4,-2.29697 -2.2212,-7.49946 -3.7253,-7.59777 -1.64,-0.10719 -1.6356,-0.15194 0.057,-0.58904 1.5901,-0.41067 1.7453,-1.15348 1.1776,-5.634 -0.8841,-6.97789 -1.433,-8.66041 -2.8266,-8.66412 -0.838,-0.002 -1.1826,-3.19398 -1.1826,-10.95144 0,-6.55287 -0.4366,-11.38425 -1.0874,-12.03422 -1.7827,-1.78038 -15.1474,12.96838 -16.5695,18.28553 l -1.1439,4.27708 -12.5996,2.44319 c -18.0103,3.49239 -34.0996,2.85387 -34.0996,-1.35328 0,-0.76218 2.0024,-2.44803 4.4497,-3.74634 l 4.4497,-2.36055 2.521,2.36837 c 2.0298,1.90693 2.8042,2.13333 3.9745,1.16205 0.9041,-0.7503 2.7666,-0.95997 4.9271,-0.55466 4.781,0.89692 14.2456,-1.23402 17.1479,-3.86077 2.4213,-2.1915 13.2527,-24.28255 12.349,-25.18626 -0.2679,-0.26792 -5.3993,-0.9509 -11.403,-1.51775 -15.2486,-1.4397 -19.7046,-2.59267 -29.3506,-7.59427 -8.844,-4.58576 -12.3626,-5.28822 -14.9865,-2.99199 -0.8684,0.75985 -4.4304,2.85084 -7.9158,4.64664 -5.8516,3.01499 -7.2495,3.30267 -18.25,3.75572 -9.2455,0.38078 -11.91299,0.80069 -11.91299,1.87533 0,0.76157 1.34999,4.36205 2.99999,8.00104 3.5529,7.83579 3.585,8.25548 1,13.07855 -1.1,2.05236 -2,4.23098 -2,4.84138 0,0.61041 -0.9,1.92431 -1.99999,2.9198 -1.93001,1.74663 -2.06999,1.74663 -4,0 -2.75273,-2.49119 -2.57439,-6.90302 0.37275,-9.22125 2.10908,-1.659 2.29526,-2.37707 1.67536,-6.46177 -0.63092,-4.15727 -5.94101,-14.18276 -8.51529,-16.07693 -1.63731,-1.20474 -5.86484,0.17913 -7.85279,2.57058 -1.00098,1.20415 -2.72786,3.98937 -3.83752,6.18937 -5.61209,11.12651 -5.85373,11.46394 -8.59126,11.99657 -1.51319,0.29441 -4.67021,0.97812 -7.0156,1.51936 -2.34539,0.54124 -5.38289,0.98407 -6.75,0.98407 -3.48537,0 -3.27602,-3.36348 0.44068,-7.08018 2.5391,-2.5391 3.27815,-2.79257 5.58501,-1.91551 4.31357,1.64002 7.38921,-1.47905 13.48323,-13.67363 7.6973,-15.40286 6.5369,-14.52339 18.11086,-13.72625 13.30236,0.91618 13.44106,0.83095 10.19346,-6.26283 -3.37153,-7.3643 -4.05693,-13.97504 -1.8845,-18.176 2.3367,-4.51863 0.466,-4.04001 -6.93152,1.77345 -8.3679,6.57608 -20.77333,12.69631 -28.69246,14.15547 -7.76628,1.43099 -15.6412,0.51729 -16.50066,-1.91453 -0.32656,-0.92399 -1.24443,-2.43913 -2.03971,-3.36698 -0.79528,-0.92784 -1.17927,-2.1185 -0.85331,-2.64592 0.83427,-1.34988 -1.36349,-5.11344 -5.16229,-8.84017 -4.60968,-4.52222 -4.24867,-5.70916 1.51556,-4.98292 2.6125,0.32915 7.51274,1.23381 10.88941,2.01035 5.20396,1.19677 7.48949,1.20874 15,0.0785 4.87333,-0.73337 10.75135,-2.25578 13.06228,-3.38313 2.31094,-1.12735 5.09688,-2.04973 6.19099,-2.04973 1.09411,0 2.2674,-0.45 2.60732,-1 0.33992,-0.55 1.69878,-1 3.0197,-1 1.32091,0 8.43959,-1.35 15.81939,-3 16.3853,-3.66352 23.3095,-3.75423 39.6609,-0.51955 6.875,1.36003 13.9572,2.48331 15.7382,2.49617 2.7439,0.0198 3.2019,-0.31104 3,-2.16734 -0.2176,-2.00141 0.1571,-2.16863 4.3369,-1.93522 l 4.5751,0.25548 0.093,-7.81477 c 0.099,-8.31401 2.6604,-19.26517 6.0692,-25.94682 1.8642,-3.65421 5.4754,-7.3026 12.8339,-12.96594 2.715,-2.08958 2.7192,-2.11223 1.0398,-5.65113 -3.7965,-8.00066 -1.2225,-12.48523 7.7464,-13.49616 4.3526,-0.4906 4.4298,-0.44571 6.6643,3.87447 2.5175,4.86738 2.5904,9.89241 0.1965,13.54596 -0.8378,1.27867 -2.1465,2.32485 -2.9082,2.32485 -0.8937,0 -1.3889,1.15294 -1.3959,3.25 -0.01,1.7875 -0.6809,5.45902 -1.5,8.15893 -2.3906,7.88047 -2.0041,12.23457 1.2609,14.20269 1.5125,0.91175 4.7715,3.01468 7.2422,4.67319 2.5522,1.71319 6.3269,3.22227 8.7405,3.49431 3.8169,0.43023 4.812,0.0438 9.8028,-3.80655 5.0748,-3.91513 5.4982,-4.54228 4.9016,-7.25871 l -0.653,-2.97332 4.3912,0.6585 c 3.8537,0.5779 4.8758,0.29716 8.3504,-2.29357 2.1776,-1.62364 3.9626,-3.77409 3.9668,-4.77877 0.01,-2.39001 2.3293,-2.00109 10.0075,1.67799 6.328,3.03215 9.5034,5.39218 11.1045,8.2531 1.1678,2.08687 17.152,15.74221 18.4269,15.74221 1.664,0 3.2598,4.1088 2.0612,5.30736 -0.6009,0.60095 -1.0926,1.88681 -1.0926,2.85746 0,3.74299 -6.4493,4.95436 -11.9,2.23518 -1.764,-0.88 -4.6457,-1.58863 -6.4037,-1.57474 -3.4753,0.0275 -19.2172,2.66731 -21.7802,3.65245 -0.8712,0.33484 -2.6143,3.09466 -3.8736,6.13292 -2.3666,5.70982 -7.9675,14.5737 -11.1474,17.64153 -1.841,1.77611 -3.3376,6.19571 -4.398,12.98774 -0.4194,2.68585 -2.1287,5.40834 -6.0647,9.65979 -4.6708,5.04494 -5.7694,7.00477 -7.4331,13.2601 -2.0655,7.76581 -2.7004,22.28891 -1.0198,23.32755 0.6167,0.38117 0.5276,1.32894 -0.2406,2.55902 -0.9621,1.54066 -0.9578,2.37355 0.021,3.94007 0.6823,1.09254 1.2406,3.30959 1.2406,4.92677 0,2.29962 0.6872,3.28314 3.1536,4.51357 10.35193,4.56498 9.7619,4.4546 9.7619,4.4546 l 1.70867,3.53438 z"
       style="fill:#000000"
       id="horse09" />
    <path
       d="m 1360.1642,477.94702 c 5.1347,-1.95693 9.7074,-3.92603 10.1616,-4.37577 0.4541,-0.44974 -0.4459,-1.29181 -2,-1.87127 -1.5542,-0.57945 -5.7508,-2.13911 -9.3258,-3.46589 -3.575,-1.32679 -8.1924,-2.6811 -10.2609,-3.00957 -3.5827,-0.56895 -3.855,-0.4126 -5.75,3.30182 -1.9207,3.76496 -2.6917,10.94281 -1.3224,12.31206 1.6802,1.68026 9.8551,0.40243 18.4975,-2.89138 z m 17.9647,116.05805 c -0.8841,-0.79205 -0.6568,-3.5 -0.6568,-3.5 -0.3612,-1.925 -0.8405,-5.075 -1.065,-7 -0.8914,-7.64253 -1.1525,-8.76857 -2.6849,-11.58163 -0.9535,-1.75029 -2.0494,-7.90914 -2.738,-15.38744 -0.6316,-6.85799 -1.5772,-13.27049 -2.1014,-14.25 -0.7513,-1.40379 -2.2693,-1.79295 -7.168,-1.83771 -3.4181,-0.0312 -14.0898,-0.44097 -23.7148,-0.91055 -19.1594,-0.93473 -28.0614,-2.8857 -41.4564,-9.08563 -6.3095,-2.92038 -7.5091,-3.14427 -14.4619,-2.69921 -6.6882,0.42812 -8.7601,1.0944 -17.5817,5.65384 -5.5,2.84269 -12.475,7.30924 -15.5,9.92567 -3.025,2.61643 -8.65,7.08918 -12.5,9.93944 -5.6984,4.21865 -15.5,14.78262 -15.5,16.70551 0,0.25232 -1.35,1.83978 -3,3.52771 -1.65,1.68793 -3.0031,3.39094 -3.0068,3.78448 0,0.39354 -1.6913,1.81583 -3.75,3.16066 -2.0588,1.34483 -4.6432,3.19827 -5.7432,4.11876 -1.1,0.92049 -3.2474,1.96873 -4.772,2.32942 -3.4969,0.82732 -4.3471,-0.98748 -2.7416,-5.85208 1.0741,-3.25447 1.4863,-3.54124 5.0912,-3.54124 2.2974,0 3.9224,-0.47812 3.9224,-1.15407 0,-0.63474 1.7744,-2.6729 3.9431,-4.52924 4.3575,-3.72985 12.3142,-14.60348 14.4814,-19.79015 0.7654,-1.8319 2.783,-4.35941 4.4836,-5.61669 4.1167,-3.04365 3.9007,-4.14179 -0.6581,-3.3453 -8.5808,1.49919 -18.7503,5.54868 -26.25,10.45275 -6.6776,4.36648 -7.7211,4.68546 -17.2082,5.26054 -9.8395,0.59645 -11.8531,-0.31758 -9.1624,-4.15911 2.1703,-3.0985 5.8027,-4.33461 8.7677,-2.98366 1.8968,0.86425 3.5549,0.65244 8.0458,-1.02783 9.0896,-3.40085 17.6315,-8.1671 23.859,-13.31302 3.8428,-3.17536 6.7373,-4.79422 8.5719,-4.79422 4.5334,0 11.6881,-2.90473 15.5459,-6.31146 3.4978,-3.08883 3.6411,-3.4924 4.5847,-12.90591 0.8162,-8.14325 1.4805,-10.54072 4.1014,-14.80008 1.72,-2.79549 2.8838,-5.32626 2.5861,-5.62393 -1.0706,-1.07061 -4.9335,0.90449 -11.504,5.88196 -6.8443,5.18483 -21.2478,12.75942 -24.2629,12.75942 -0.9244,0 -3.2963,0.675 -5.2708,1.5 -4.4551,1.8615 -23.5807,2.04691 -30.1413,0.29221 -3.6383,-0.97309 -4.4053,-1.55591 -3.9472,-2.99922 0.4076,-1.28416 -0.1584,-2.06782 -1.9986,-2.76746 -5.2908,-2.0116 -2.392,-4.24325 9.3896,-7.22837 5.8184,-1.47424 9.2887,-1.76247 15.1764,-1.2605 5.3821,0.45889 7.8467,0.30498 8.3578,-0.52194 0.4881,-0.78973 2.2855,-0.95808 5.5034,-0.5155 3.7074,0.50989 5.6449,0.21867 8.6422,-1.29896 2.1249,-1.0759 5.4385,-2.28806 7.3635,-2.6937 1.925,-0.40563 3.9855,-1.12672 4.5788,-1.60242 0.5934,-0.4757 4.1934,-2.07626 8,-3.5568 6.394,-2.48685 8.309,-2.72517 25.1405,-3.12866 15.8219,-0.37928 19.6773,-0.15024 29.2987,1.74055 12.8273,2.52081 17.2231,2.81742 17.7627,1.19856 0.2458,-0.73718 3.0589,-1.15779 7.7436,-1.15779 4.0467,0 7.5876,-0.37197 7.8685,-0.8266 0.281,-0.45463 -1.2674,-2.97863 -3.441,-5.60888 -4.4585,-5.39544 -4.8129,-7.63999 -1.9481,-12.33869 1.098,-1.80079 2.0106,-4.05079 2.0281,-5 0.017,-0.94921 0.6702,-2.56879 1.4504,-3.59906 0.8355,-1.10331 1.1934,-2.9987 0.8709,-4.61151 -0.687,-3.43469 1.1763,-7.00313 7.232,-13.85003 2.8895,-3.26704 6.7913,-6.31628 10.0666,-7.86707 2.9416,-1.39277 5.3483,-2.78169 5.3483,-3.08649 0,-0.3048 -0.6558,-1.27881 -1.4573,-2.16447 -0.8015,-0.88565 -1.589,-3.5941 -1.75,-6.01878 -0.2909,-4.38098 -0.2638,-4.42065 4.3421,-6.35578 6.1716,-2.59298 9.0411,-1.78992 10.8729,3.04286 0.7889,2.08148 1.5081,4.6845 1.5981,5.7845 0.2526,3.08824 -2.3062,7.24796 -5.3524,8.70092 -2.2412,1.06899 -2.7998,2.05604 -3.003,5.30618 -0.1373,2.1961 -1.0024,6.60118 -1.9223,9.78907 l -1.6727,5.79618 3.4223,3.1673 c 5.3335,4.93608 11.8427,9.75958 14.5692,10.79622 4.2428,1.61309 10.1658,1.13139 12.2973,-1.00009 1.0693,-1.06933 3.5493,-2.24534 5.5111,-2.61337 4.1538,-0.77927 5.4722,-2.2872 3.3608,-3.84411 -0.8192,-0.60407 -2.0288,-2.1108 -2.6879,-3.3483 -1.166,-2.18891 -1.0668,-2.25 3.6551,-2.25 2.6695,0 7.1494,0.68175 9.9552,1.51499 6.224,1.84833 10.2615,0.59889 10.2615,-3.17551 0,-3.19117 2.5343,-3.02914 8.0542,0.51495 4.5183,2.90099 12.9458,10.91132 12.9458,12.30496 0,0.42058 3.2625,4.72351 7.25,9.56208 3.9875,4.83856 7.8544,9.56478 8.5932,10.50271 1.148,1.45749 1.0415,2.12903 -0.7327,4.6207 -2.8462,3.99707 -10.1105,5.20564 -10.1105,1.68208 0,-1.60363 -13.3751,-6.51369 -18,-6.60785 l -3.5,-0.0713 3.5,-1.31053 c 2.6746,-1.00147 3.1143,-1.47007 1.8644,-1.98701 -2.5374,-1.04945 -10.3945,-0.21177 -10.1535,1.08251 0.1161,0.62305 -1.0089,1.38521 -2.5,1.6937 -2.0148,0.41686 -4.2516,2.80843 -8.7109,9.31347 -9.4462,13.77974 -9.9017,14.85353 -8.4705,19.96537 0.668,2.38581 0.9934,5.49446 0.7232,6.90811 -0.4148,2.16992 0.2282,3.06035 4.128,5.71663 2.5406,1.7305 6.6443,4.81558 9.1193,6.85572 5.6934,4.69312 15.2585,10.71086 25.411,15.98712 7.2252,3.75488 8.8072,4.1753 18.2465,4.84903 5.6845,0.40574 10.6746,1.07801 11.089,1.49395 0.4144,0.41594 -0.3497,1.65058 -1.698,2.74365 -1.9429,1.57504 -3.1878,1.83007 -6,1.22911 -1.9517,-0.41706 -6.0235,-0.82505 -9.0485,-0.90663 -4.355,-0.11744 -6.7491,-0.89108 -11.5,-3.71605 -3.3,-1.96224 -7.8,-4.12353 -10,-4.80286 -2.2,-0.67933 -9.4,-3.64476 -16,-6.58985 -11.6236,-5.18673 -18.3285,-7.3901 -23.4809,-7.71624 -2.0559,-0.13014 -2.7118,0.52819 -3.829,3.84296 -1.5698,4.65774 -2.0077,17.7773 -0.9511,28.5 1.0989,11.15217 1.4031,12.5855 3.3814,15.93446 1.4446,2.44562 2.485,3.06554 5.1448,3.06554 2.4571,0 4.2817,4.25383 6.9378,6.83333 -36.6672,0.0464 -13.1983,2.5867 -17.5741,-1.3333 z"
       style="fill:#000000"
       id="horse07" />
    <path
       d="m 237.50107,476.2585 2.87618,-1.50698 -3.06744,-1.58624 c -1.6871,-0.87243 -3.3274,-2.26366 -3.64512,-3.09162 -0.52344,-1.36406 -6.67249,-4.56859 -8.76649,-4.56859 -1.01816,0 -4.8982,7.33531 -4.8982,9.26016 0,0.73691 0.5625,1.92235 1.25,2.63431 1.62581,1.68364 12.28889,0.93496 16.25107,-1.14104 z M 158.5,598.23453 c -4.33089,-0.4995 -6.93206,-1.74452 -9.52615,-1.10173 l -0.39195,-1.87627 c 0.56072,-0.56073 -2.24991,-6.93279 -9.73094,-22.06125 C 136.18293,567.79986 134,562.77664 134,562.03254 c 0,-0.7441 1.587,-3.75468 3.52666,-6.69019 1.93967,-2.9355 4.18434,-7.53852 4.98816,-10.22891 l 1.4615,-4.89164 -3.96318,-5.93491 c -9.66719,-14.47674 -12.90427,-25.22409 -9.55072,-31.70915 0.92678,-1.79219 1.41885,-3.52473 1.0935,-3.85008 -0.91617,-0.91618 -10.84329,1.84151 -12.80592,3.5574 -0.9625,0.84149 -1.75,2.14974 -1.75,2.90722 0,2.34262 -4.14433,3.16108 -8.85734,1.74922 -4.85515,-1.45443 -7.60714,-0.81551 -10.547653,2.44881 -1.04774,1.16312 -2.47545,2.11476 -3.17267,2.11476 -0.69723,0 -3.38216,2.475 -5.96649,5.5 -2.58434,3.025 -5.24069,5.5 -5.90301,5.5 -0.66232,0 -2.2611,1.125 -3.55284,2.5 -1.29175,1.375 -2.976611,2.5 -3.744141,2.5 -0.76753,0 -3.35767,1.35 -5.75586,3 -2.39819,1.65 -5.29177,3 -6.43018,3 -2.93492,0 -2.66679,-3.40697 0.37729,-4.79395 2.98892,-1.36184 4.72214,-4.04812 7.17503,-11.12037 1.43312,-4.13203 1.58182,-5.51356 0.62786,-5.83333 -2.08518,-0.69898 -1.40343,-2.86141 1.28884,-4.08809 1.39636,-0.63623 4.658861,-3.13518 7.250001,-5.55323 8.31444,-7.75905 10.40829,-8.39393 30.211163,-9.16043 17.71206,-0.68557 27.13799,-2.50728 31.03654,-5.99829 2.4759,-2.2171 10.09559,-5.23315 15.05626,-5.95964 2.77453,-0.40633 7.92118,-0.0683 13,0.85379 10.33799,1.87694 16.8065,2.26593 19.31094,1.16127 1.04878,-0.46259 3.96792,-0.42834 6.5,0.0763 2.52795,0.5038 6.37227,0.69099 8.54294,0.41599 l 3.94669,-0.5 -3.16122,-3.59162 c -4.4421,-5.0469 -5.2897,-7.75909 -3.73313,-11.94544 2.72489,-7.32854 4.01928,-10.48126 4.50098,-10.96296 0.275,-0.275 1.77035,-3.04488 3.32301,-6.1553 5.23626,-10.48973 8.71036,-13.44595 22.06316,-18.77422 l 2.88617,-1.15169 -2.17777,-2.31813 c -2.37751,-2.53074 -4.56485,-9.03072 -3.5769,-10.62925 0.93863,-1.51874 7.37805,-3.97141 10.42682,-3.97141 2.04372,0 3.33218,0.9652 5.29934,3.96979 1.42951,2.18338 2.73694,5.28394 2.90542,6.89012 0.37568,3.58149 -1.75062,7.80258 -4.26111,8.45909 -2.25663,0.59012 -3.88814,4.53668 -3.88814,9.40523 0,2.64939 -1.06201,5.00065 -4.04058,8.94574 l -4.04058,5.35171 3.08862,4.48916 c 1.69874,2.46904 3.55852,4.48916 4.13285,4.48916 0.57433,0 2.1884,0.9 3.58682,2 2.98806,2.35041 4.62139,2.50863 6.50034,0.62967 1.86537,-1.86537 7.33696,-4.62967 9.16385,-4.62967 2.40258,0 3.05415,-2.17059 0.99908,-3.32823 -1.65074,-0.92988 -1.3199,-1.21768 2.6096,-2.27015 2.475,-0.6629 3.7125,-1.24945 2.75,-1.30344 -4.14604,-0.2326 -0.0642,-3.07608 6.75,-4.70222 1.65,-0.39375 4.67856,-1.76893 6.73013,-3.05594 2.05157,-1.28701 4.30344,-2.34002 5.00417,-2.34002 3.08684,0 18.17855,10.57904 22.66015,15.88439 2.60903,3.08858 7.28091,8.11543 10.38195,11.17077 6.23803,6.14608 6.59618,8.32671 1.9658,11.96896 -2.93275,2.30691 -4.96782,2.49258 -7.16346,0.65357 -2.61525,-2.19048 -9.02644,-3.55154 -19.59684,-4.16033 -11.63501,-0.67011 -11.96866,-0.51613 -16.21438,7.48264 -1.60566,3.025 -3.89603,7.075 -5.08971,9 -1.55311,2.50462 -2.1714,5.09951 -2.17407,9.12427 -0.002,3.09335 -0.65117,7.45928 -1.44247,9.70206 -1.37879,3.90793 -1.34958,4.10608 0.70138,4.75703 1.17706,0.37359 5.86322,0.96874 10.4137,1.32258 8.99712,0.69959 11.22885,2.10846 11.29185,7.12845 0.021,1.67302 0.96645,3.10137 2.7818,4.20258 1.5125,0.9175 4.1,2.92703 5.75,4.46561 1.65,1.53858 5.5875,4.7245 8.75,7.07981 3.1625,2.35532 5.75,4.66368 5.75,5.12969 0,0.466 2.02996,3.46147 4.51102,6.65658 5.33117,6.8655 4.82799,8.67828 -1.77527,6.39559 -3.446,-1.19124 -4.29514,-1.98106 -4.55428,-4.2361 -0.18227,-1.58614 -1.35864,-3.45335 -2.75,-4.36501 C 304.09416,554.99197 303,553.70601 303,553.01052 c 0,-1.49874 -7.14641,-7.51335 -11.73277,-9.87461 -1.77802,-0.91541 -5.29042,-1.94641 -7.80533,-2.29112 -5.2518,-0.71984 -5.74774,-0.26288 -11.0044,10.1395 -2.98688,5.91072 -3.18796,6.07866 -11,9.18743 -4.37663,1.74165 -8.34052,2.79863 -8.80866,2.34883 -1.15485,-1.10959 0.14175,-6.5968 1.90448,-8.05973 0.87098,-0.72285 2.7622,-0.93154 4.86573,-0.53691 2.9445,0.55239 3.63142,0.30038 4.76096,-1.74664 0.72599,-1.31569 2.79193,-4.33573 4.59098,-6.71119 1.79904,-2.37547 2.92404,-4.65719 2.5,-5.07049 -1.49642,-1.45852 -23.61645,-2.94179 -27.30018,-1.83063 -4.61748,1.39282 -42.03142,0.19914 -51.97081,-1.65811 -4.125,-0.77079 -7.82625,-1.40151 -8.225,-1.40161 -0.92247,-2.2e-4 0.1522,5.52427 1.88996,9.71562 2.16709,5.22685 7.31869,9.49288 17.37608,14.3891 9.58665,4.66706 16.20979,7.08795 23.45896,8.57473 2.91916,0.5987 4.07864,1.36957 4.29104,2.85283 0.23385,1.63307 -0.54331,2.25516 -3.95494,3.16577 -3.57597,0.95449 -4.80538,0.85911 -7.79104,-0.60442 -1.94978,-0.95576 -4.32996,-1.56036 -5.28928,-1.34356 -0.95932,0.2168 -3.09527,-0.56785 -4.74655,-1.74367 -1.65129,-1.17582 -8.97329,-5.00913 -16.27112,-8.51848 l -13.26877,-6.38063 -2.7959,-5.70073 c -3.31498,-6.75912 -7.23227,-12.10025 -9.93566,-13.54706 -1.61047,-0.8619 -2.54122,-0.47328 -5.32235,2.2223 -1.85381,1.79679 -4.08103,5.4059 -4.94938,8.02025 -0.86835,2.61436 -2.85602,6.5165 -4.41704,8.67142 -6.94714,9.59026 -7.44026,13.8665 -2.76313,23.96159 3.57992,7.72691 6.37473,10.2268 11.45641,10.24749 3.46786,0.0141 4.74438,0.5808 6.99276,3.10423 l 2.75049,3.08695 -1.90221,2.35358 c 0,0 -5.76463,0.93693 -10.08333,0.20198 z"
       style="fill:#000000"
       id="horse04" />
    <path
       d="m 606.81819,480.50507 c 3.2609,0 9.1818,-2.67842 9.1818,-4.15352 0,-1.18376 -16.04,-8.84648 -18.518,-8.84648 -1.6654,0 -2.5845,0.85529 -3.3842,3.14922 -1.6831,4.82824 -1.357,6.43776 1.9808,9.77552 2.8614,2.86137 3.2299,2.97263 5.2225,1.57692 1.1792,-0.82591 3.6619,-1.50166 5.5171,-1.50166 z m -57.2725,116.65591 c 2.4414,0.93686 1.6993,-3.07711 -1.0457,-5.65591 -1.375,-1.29175 -2.5,-2.96564 -2.5,-3.71977 0,-0.75413 -1.0541,-2.42528 -2.3425,-3.71366 -1.2884,-1.28839 -3.2009,-3.67321 -4.25,-5.2996 -1.0491,-1.62638 -3.3021,-5.03278 -5.0065,-7.56977 -2.5315,-3.76784 -3.1326,-5.73044 -3.2822,-10.71509 -0.1909,-6.36277 -2.1121,-12.54795 -5.3526,-17.23211 -2.2284,-3.22134 -6.0302,-3.63265 -9.7937,-1.05958 -18.35084,12.54623 -32.94945,25.27557 -33.00429,28.77828 -0.0175,1.11721 -0.6925,2.90481 -1.5,3.97243 -0.80751,1.06762 -1.4682,2.89012 -1.4682,4.05 0,1.15988 -0.4947,2.60357 -1.09934,3.20821 -1.79924,1.79924 -0.0559,5.10765 3.05104,5.79005 1.81856,0.39942 3.06325,1.43402 3.41597,2.8394 0.30521,1.21606 1.06045,3.91388 2.66986,4.48112 l 1.63835,2.90974 -17.70425,0.22175 -0.91231,-7.92182 c -0.45228,-3.92724 -3.8904,-1.42266 -2.51432,-3.38729 0.80025,-1.14252 1.455,-3.04707 1.455,-4.23235 0,-1.18528 0.675,-2.71525 1.5,-3.39994 0.825,-0.68469 1.5,-2.49164 1.5,-4.01546 0,-1.54023 0.66611,-3.02617 1.5,-3.34617 0.825,-0.31658 1.50297,-1.60222 1.50659,-2.85699 0.004,-1.25476 0.90066,-3.63138 1.99341,-5.28138 1.09275,-1.65 1.99668,-4.35 2.00872,-6 0.0278,-3.80438 0.59636,-4.57744 5.49128,-7.46614 2.2,-1.29831 6.37916,-4.72985 9.28702,-7.62564 4.09592,-4.07892 5.17924,-5.78809 4.80866,-7.58665 -0.2631,-1.27686 -0.74418,-7.22763 -1.06908,-13.22393 -0.57172,-10.55173 -0.50687,-11.02906 2.01625,-14.84176 1.43383,-2.16667 2.45556,-4.0908 2.27051,-4.27585 -0.18505,-0.18505 -3.98653,0.51346 -8.44773,1.55225 -4.4612,1.03879 -11.20601,2.36817 -14.98845,2.95418 -3.78245,0.58601 -10.44217,2.4856 -14.79937,4.22132 -8.36096,3.33063 -11.07114,5.54141 -22.28977,18.18243 -6.96897,7.85255 -9.77841,8.51374 -8.18316,1.92587 0.50824,-2.09885 1.31012,-5.73216 1.78197,-8.07404 0.89767,-4.45527 5.43114,-12.24204 7.12734,-12.24204 0.54219,0 0.98581,-0.45 0.98581,-1 0,-0.55 -1.8,-1 -4,-1 -2.2,0 -4,-0.3949 -4,-0.87756 0,-1.78149 2.64942,-2.86609 8.37205,-3.42728 3.96239,-0.38858 6.58504,-1.24567 8.06445,-2.6355 1.20582,-1.13281 2.9509,-2.05966 3.87795,-2.05966 0.92705,0 1.68555,-0.58993 1.68555,-1.31095 0,-2.50064 9.97752,-4.01376 27.5,-4.17046 18.17874,-0.16257 17.84314,-0.0929 37.99999,-7.8846 5.5827,-2.158 13.0026,-1.99636 26.1715,0.57013 10.5277,2.05174 11.3966,2.08844 12.569,0.53089 1.0416,-1.38375 1.9515,-1.50969 5.2595,-0.72797 2.2,0.51989 6.3625,0.95598 9.25,0.9691 6.0442,0.0275 6.7185,-1.25562 2.655,-5.05183 -5.6167,-5.24723 -6.8103,-11.10715 -3.4012,-16.69848 1.0979,-1.80079 1.9962,-4.16329 1.9962,-5.25 0,-1.08671 0.3721,-1.97583 0.8268,-1.97583 0.4548,0 0.6374,-1.29047 0.4059,-2.86772 -0.2315,-1.57725 0.2604,-4.16475 1.093,-5.75 2.922,-5.56316 15.8812,-16.38228 19.6227,-16.38228 0.9182,0 2.4556,-0.57492 3.4166,-1.27759 1.6075,-1.17543 1.6232,-1.51529 0.1973,-4.25 -0.8525,-1.63483 -1.5527,-4.42887 -1.5561,-6.20899 0,-2.77687 0.5083,-3.45154 3.6159,-4.75 1.9922,-0.83238 5.1317,-1.51342 6.9767,-1.51342 2.9059,0 3.6045,0.5174 5.2239,3.86912 3.0815,6.37797 1.0736,13.06153 -4.5727,15.22089 -1.633,0.62453 -2.25,1.67244 -2.25,3.82155 0,1.62858 -1.35,6.46695 -3,10.75194 -1.65,4.28498 -3,8.27702 -3,8.87119 0,0.59417 1.9125,2.5031 4.25,4.24208 2.3375,1.73897 5.375,4.06308 6.75,5.16468 1.375,1.10161 4.4024,2.29633 6.7275,2.65495 3.8605,0.59541 4.3095,0.43649 5.1713,-1.83018 1.0593,-2.7862 7.3133,-6.44448 14.1012,-8.24856 3.1776,-0.84454 4.4588,-1.68654 4.3597,-2.86531 -0.083,-0.98406 0.8241,-1.91135 2.209,-2.25894 1.2921,-0.3243 2.8728,-1.22049 3.5127,-1.99152 0.6399,-0.77104 2.2068,-1.40189 3.482,-1.40189 1.2752,0 2.5967,-0.45 2.9366,-1 1.1812,-1.91127 5.0419,-0.95034 12.2564,3.05066 7.1058,3.94076 8.8206,5.67904 17.7436,17.98625 1.65,2.2758 4.6875,6.42536 6.75,9.22125 2.0625,2.79588 3.7478,5.56907 3.745,6.16263 -0.011,2.27583 -4.6362,6.60268 -7.6875,7.19085 -2.5716,0.49569 -3.6414,0.13662 -5.5,-1.84602 -3.3944,-3.62078 -5.8352,-4.63847 -15.0218,-6.2633 -13.5279,-2.39265 -13.9754,-2.29987 -18.0767,3.74768 -10.5263,15.52158 -11.5072,18.26002 -10.1613,28.36808 l 0.6814,5.11808 10.6355,1.22735 c 5.8495,0.67505 11.6669,1.88225 12.9277,2.68268 2.2052,1.40004 2.27,1.82381 1.7051,11.15457 -0.6568,10.85008 -0.6967,10.75689 7.2701,16.98437 6.2481,4.88403 15.87,8.83596 23.5034,9.65343 3.6894,0.39511 6.9408,1.09496 7.2253,1.55524 0.9105,1.47321 -4.5624,7.0062 -6.9301,7.0062 -1.2409,0 -3.086,-0.91705 -4.1004,-2.03788 -1.3563,-1.49872 -2.5724,-1.87796 -4.5963,-1.43343 -3.2735,0.71898 -4.7512,-0.006 -13.4708,-6.60542 -8.046,-6.09001 -10.0286,-6.09096 -12.2708,-0.006 -0.8953,2.42957 -2.1503,4.59123 -2.7888,4.80368 -1.5424,0.51329 -5.339,-3.63829 -5.339,-5.83808 0,-1.85351 2.526,-4.88287 4.0714,-4.88287 0.5108,0 0.9286,-0.64224 0.9286,-1.4272 0,-2.38697 -6.9227,-7.32413 -18.5,-13.19383 -9.4996,-4.81631 -11.5456,-5.50129 -15,-5.02178 -2.2,0.30538 -8.725,1.24348 -14.5,2.08466 -7.2177,1.05132 -14.4075,1.36138 -23,0.99187 -15.7154,-0.67583 -22.7527,-1.77175 -36.2241,-5.64124 -14.2495,-4.093 -13.8148,-4.51733 -13.3727,13.0552 0.3533,14.04275 1.7732,22.22389 4.2079,24.24453 0.7639,0.63397 1.3889,1.6135 1.3889,2.17673 0,2.2043 7.3239,11.9037 9.6586,12.79135 1.3594,0.51684 4.1298,0.95224 6.1565,0.96755 3.3195,0.0251 3.8952,0.44656 5.8052,4.25 1.7636,3.51177 2.4233,3.54844 2.4233,3.54844 0,0 0,0 -14.71687,0.79375"
       style="fill:#000000"
       id="horse05" />
    <path
       d="m 990.49996,478.08517 c 1.65,-0.86227 3.7507,-1.57053 4.6682,-1.57392 2.2489,-0.008 4.8318,-1.05209 4.8318,-1.95263 0,-1.13379 -4.8533,-3.2245 -12,-5.16936 -3.575,-0.97288 -6.8314,-1.79482 -7.2366,-1.82652 -1.0343,-0.081 -3.76337,6.7339 -3.76337,9.39781 0,1.21616 0.33747,2.55657 0.74997,2.97869 1.1121,1.138 9.304,-0.0532 12.75,-1.85407 z m 60.19524,115.77185 c 0.7995,-2.08353 -1.4966,-4.22405 -5.2957,-4.93676 -2.3314,-0.43737 -3.3995,-1.18881 -3.3995,-2.3916 0,-0.96462 -0.9,-2.89802 -2,-4.29644 -1.1,-1.39842 -2,-3.07544 -2,-3.7267 0,-1.50087 -3.5011,-6.2371 -7.9307,-10.7284 -1.8868,-1.91317 -4.3618,-5.18791 -5.5,-7.2772 -1.1381,-2.08929 -5.8943,-7.91869 -10.5693,-12.95421 l -8.5,-9.1555 -5.50004,0.51723 c -31.65867,2.97724 -40.02337,2.60388 -57.35797,-2.56019 -16.3687,-4.87635 -20.7766,-5.81002 -27.5072,-5.82654 -5.908,-0.0145 -6.5543,0.20869 -9,3.10805 -5.0249,5.95724 -9.9382,10.46618 -28.7777,26.4095 -3.0998,2.62331 -4.2469,4.39753 -4.5563,7.04712 -0.2273,1.94762 0.16942,3.58511 0.4339,4.06474 0,0 -0.82385,5.99605 -0.8996,8.66206 -0.0758,2.666 1.17655,6.31711 2.3151,6.75 l 5.8498,3.48678 c -0.33596,1.11052 2.7452,2.76875 2.7452,2.76875 l 1.41197,4.76875 c 0,0 -19.44184,-1.36395 -18.97504,-1.38195 0.4668,-0.018 -0.39733,-3.24587 -1.51223,-5.13599 -1.6265,-2.7567 -1.7732,-3.64775 -0.7416,-4.50389 0.7666,-0.63622 1.286,-3.31902 1.286,-6.64247 0.0897,-8.03906 0.7857,-8.91705 0.7857,-8.91705 l 0.5,-8.14987 c 0.5474,-8.92206 1.2107,-10.14511 8.0856,-14.90944 3.99,-2.76511 5.5393,-6.30848 2.1644,-4.95049 -0.9625,0.38729 -3.7788,1.32059 -6.2584,2.07398 -7.8943,2.39857 -20.3184,10.59347 -34.1615,22.53288 -5.6821,4.90067 -11.725,6.85668 -22.3301,7.22791 -4.3125,0.15097 -5.0372,-0.1 -5.2708,-1.82497 -0.1814,-1.33915 0.8766,-2.77518 3.202,-4.34601 2.81,-1.89829 4.2257,-2.2188 7.4182,-1.67944 2.5677,0.43381 4.1943,0.26384 4.6582,-0.48675 0.392,-0.63433 2.8007,-2.04824 5.3526,-3.14203 6.7088,-2.87553 14.858,-9.50872 17.755,-14.45212 2.1035,-3.58937 3.8608,-4.92658 10.8756,-8.27559 7.9318,-3.78685 15.5729,-9.50005 17.4855,-13.07376 0.4793,-0.89551 1.3888,-5.43432 2.0211,-10.08625 0.6324,-4.65193 2.0221,-10.44009 3.0883,-12.86259 1.0662,-2.42249 1.6748,-4.66827 1.3525,-4.99062 -0.559,-0.55896 -9.17,2.34718 -19.9382,6.72897 -7.1406,2.90564 -19.7022,6.68525 -28.9786,8.71924 -4.3882,0.96219 -9.7882,2.57149 -12,3.57623 -4.3512,1.97659 -10.5214,2.48721 -10.5214,0.87068 0,-0.55 -1.275,-1 -2.8333,-1 -6.5314,0 -3.7715,-3.99453 4.5732,-6.61929 3.5808,-1.12627 5.7115,-2.39074 6.0206,-3.57289 0.2632,-1.00634 1.6622,-2.11021 3.109,-2.45307 1.4468,-0.34285 3.442,-1.32935 4.4338,-2.19222 0.9917,-0.86288 4.1417,-1.90357 7,-2.31265 8.9388,-1.27939 14.1172,-2.43815 16.381,-3.66558 1.2013,-0.65137 3.535,-1.1843 5.1859,-1.1843 1.6509,0 9.668,-1.7569 17.8158,-3.90423 23.2682,-6.13231 39.0232,-6.97446 60.0945,-3.21222 11.9284,2.12978 13.4556,2.2163 15,0.84976 1.187,-1.05029 3.833,-1.51553 8.5445,-1.50237 3.7538,0.0105 7.2593,-0.4152 7.79,-0.94597 0.6201,-0.62004 -0.3362,-2.89873 -2.675,-6.37409 -3.8117,-5.66417 -4.4477,-9.24574 -2.5261,-14.22598 0.5973,-1.5483 1.0861,-3.9108 1.0861,-5.25 0,-1.41457 0.5837,-2.4349 1.393,-2.4349 1.5691,0 2.913,-2.6959 2.0445,-4.10117 -0.9715,-1.57183 6.61,-12.9207 10.5271,-15.7582 2.0458,-1.48195 5.70307,-3.56992 8.12747,-4.63994 5.3179,-2.34712 6.234,-3.47331 4.456,-5.47785 -1.9704,-2.22139 -4.0658,-9.92505 -2.966,-10.90455 1.5755,-1.40323 9.3458,-4.11829 11.7863,-4.11829 2.5829,0 5.0504,4.47959 6.21894,11.28999 0.7261,4.23193 -1.41324,7.71001 -4.74234,7.71001 -1.5455,0 -1.845,0.80564 -1.845,4.96298 0,4.44521 -2.1055,11.68419 -5.1456,17.69167 -0.5996,1.18505 -0.7808,2.65539 -0.4025,3.26742 1.1895,1.92479 12.84994,9.07255 14.99694,9.19308 3.4547,0.19395 6.0052,-0.24379 7.0012,-1.20161 0.5225,-0.50245 2.799,-0.91354 5.0589,-0.91354 4.4252,0 8.6493,-2.16614 6.6426,-3.40637 -0.6333,-0.39142 -1.1515,-1.81011 -1.1515,-3.15265 0,-2.35989 0.2492,-2.44513 7.5,-2.56598 4.125,-0.0688 7.95,-0.2375 8.5,-0.375 0.55,-0.1375 1.625,-0.30625 2.3889,-0.375 0.7639,-0.0688 1.3264,-0.9125 1.25,-1.875 -0.1598,-2.01319 4.475,-2.82641 10.0973,-1.77168 4.5135,0.84676 16.6099,13.59824 27.2843,28.762 3.9408,5.59811 4.0027,5.81414 2.4998,8.72035 -2.8377,5.4876 -9.2756,6.86865 -12.0784,2.59106 -1.5175,-2.31611 -6.5239,-4.67984 -12.7328,-6.01169 -1.535,-0.32927 -2.5427,-1.00023 -2.2394,-1.49103 0.6049,-0.97875 -9.3655,-4.23146 -10.611,-3.46169 -0.4242,0.2622 -0.5179,1.13732 -0.208,1.94471 0.3984,1.03843 -0.1365,1.46797 -1.8281,1.46797 -1.5845,0 -2.976,0.98969 -4.1241,2.93324 -0.953,1.61328 -3.5396,4.87578 -5.7481,7.25 -6.1129,6.57171 -7.6146,10.2066 -8.1899,19.82352 l -0.5088,8.50677 5.1241,1.86491 c 9.7474,3.54751 16.1393,5.51634 19.8026,6.09962 2.136,0.3401 5.0709,1.88658 6.9995,3.68815 3.862,3.60766 15.4289,11.83379 16.6397,11.83379 0.4546,0 4.1418,3.15485 8.1937,7.01077 7.9693,7.58379 8.2694,9.37964 1.4718,8.80745 -3.6564,-0.30777 -4.1442,-0.7449 -6.4929,-5.81822 -0.382,-0.825 -1.5972,-1.63544 -2.7006,-1.80098 -1.1034,-0.16554 -2.5363,-1.29054 -3.1842,-2.5 -0.6479,-1.20946 -4.2594,-4.10754 -8.0255,-6.44017 -7.2956,-4.51875 -17.6686,-7.53192 -30.3299,-8.81031 -6.2997,-0.63607 -6.75,-0.54882 -6.75,1.30784 0,2.82469 3.6766,10.77409 7.4726,16.15709 1.7789,2.52259 4.514,6.9807 6.0781,9.9069 1.5641,2.9262 3.655,5.75454 4.6465,6.28518 0.9916,0.53065 1.8028,1.63898 1.8028,2.46297 0,0.82398 1.5882,3.17065 3.5293,5.21481 1.9411,2.04417 4.2791,4.51292 5.1954,5.4861 0.9164,0.97319 3.3782,2.04321 5.4707,2.37781 2.6228,0.4194 3.8046,1.12082 3.8046,2.25806 0,0.90733 3.3672,5.98315 4.2234,7.20552 l -13.0567,0.24676"
       style="fill:#000000"
       id="horse06" />
    <path
       d="M 236.48743,233.87152 C 237.31934,233.55228 238,232.70174 238,231.98141 c 0,-0.72032 0.5625,-1.49899 1.25,-1.73039 2.64697,-0.89088 -1.50034,-3.66508 -9.42417,-6.30395 -9.44805,-3.14649 -10.71494,-2.60539 -11.56538,4.93969 -0.46457,4.12157 -0.27542,4.69056 1.86122,5.59887 2.30201,0.97862 13.28962,0.56632 16.36576,-0.61411 z m -24.23772,115.97922 c 0.42446,-0.26233 0.14123,-1.37714 -0.62939,-2.47736 -1.19478,-1.70578 -1.19769,-2.40822 -0.0197,-4.76948 0.75977,-1.52299 1.49796,-4.96393 1.64041,-7.64653 0.22237,-4.18754 -0.0239,-4.93447 -1.74099,-5.28056 -1.1,-0.22171 -2.225,-0.74891 -2.5,-1.17156 -0.275,-0.42264 -3.425,-1.51463 -7,-2.42663 -3.575,-0.91201 -8.91688,-2.76415 -11.87084,-4.11587 -2.95401,-1.35172 -6.1797,-2.45768 -7.16826,-2.45768 -2.50482,0 -4.96094,-1.04315 -4.96094,-2.10699 0,-3.71388 9.36863,-6.70191 10.63837,-3.39301 0.31659,0.825 1.21141,1.5 1.98849,1.5 0.77709,0 3.24691,1.15777 5.48851,2.57283 5.70058,3.59862 13.9812,5.24863 17.33435,3.45408 1.40265,-0.75068 2.55028,-1.78332 2.55028,-2.29476 0,-0.51144 0.66142,-2.3479 1.46981,-4.08102 C 219.26403,311.30957 222,300.88903 222,297.90196 c 0,-2.66726 -1.71702,-3.39689 -7.99382,-3.39689 -10.27003,0 -28.35157,-4.62157 -38.88508,-9.93887 -8.16307,-4.1207 -11.48513,-4.01521 -15.74346,0.49993 -2.5491,2.70284 -5.04476,4.02834 -10.35541,5.5 -3.8483,1.06642 -8.38219,1.93894 -10.07531,1.93894 -3.73487,0 -6.94692,1.58455 -6.94692,3.42702 0,0.74616 3.33261,4.66783 7.40579,8.71482 l 7.4058,7.35816 0.67459,7 c 0.37103,3.85 0.89375,7.7875 1.1616,8.75 0.78689,2.82767 -3.39186,2.14976 -6.16414,-1 -2.73286,-3.10496 -2.9874,-4.47049 -1.32847,-7.12686 1.41917,-2.27245 -1.21551,-6.09319 -11.64096,-16.88145 -3.85781,-3.99208 -7.42987,-8.17563 -7.9379,-9.29679 -0.58267,-1.28588 -1.68788,-1.92891 -2.99357,-1.74169 -2.55806,0.36679 -3.30442,3.45858 -3.46443,14.35137 -0.11294,7.68874 -0.27228,8.22269 -3.50824,11.75553 -4.06308,4.43584 -10.87618,7.27911 -12.565333,5.2438 -0.71244,-0.85844 -0.77123,-2.14309 -0.17041,-3.72337 1.170143,-3.0777 2.978713,-4.54941 6.125673,-4.98472 1.375,-0.1902 2.51919,-0.79582 2.54265,-1.34582 0.0235,-0.55 0.57772,-2.575 1.23171,-4.5 0.73479,-2.16286 1.10054,-8.46651 0.95735,-16.5 l -0.23171,-13 7,0.30877 c 9.65413,0.42585 15.5,-0.5206 15.5,-2.50944 0,-0.86797 -1.42188,-3.8779 -3.15973,-6.68873 -3.81425,-6.16925 -4.71077,-12.59145 -2.49725,-17.88914 2.08416,-4.98809 0.56912,-4.69358 -4.00501,0.77854 -2.06884,2.475 -4.46199,4.5 -5.3181,4.5 -0.85612,0 -3.69363,1.76596 -6.30558,3.92435 -2.61196,2.1584 -6.08605,4.21802 -7.7202,4.57694 -1.63416,0.35892 -3.258963,1.1182 -3.610683,1.68729 -1.44436,2.33703 -11.53499,5.81142 -16.87804,5.81142 -6.437521,0 -12.505411,-2.5353 -12.505411,-5.22505 0,-1.02004 -0.9,-3.61877 -2,-5.77495 -3.60255,-7.06158 -1.97816,-12.9303 2.28349,-8.25 0.8764,0.9625 3.5739,2.82613 5.99444,4.14141 3.457561,1.87878 5.196381,2.24219 8.111551,1.6953 2.98904,-0.56075 3.59865,-1.04875 3.13498,-2.50965 -0.60245,-1.89814 3.0451,-5.07706 5.82552,-5.07706 2.75182,0 12.159783,-3.41379 12.949713,-4.69896 0.43983,-0.71557 1.56483,-1.30364 2.5,-1.30681 0.93517,-0.003 5.91797,-1.35318 11.07289,-3 5.15492,-1.64683 10.34024,-2.99423 11.52293,-2.99423 1.1827,0 6.64004,-1.15862 12.12742,-2.57471 11.80784,-3.04716 14.67513,-2.9239 35.47707,1.52516 2.475,0.52935 6.68998,0.98205 9.36663,1.006 4.334,0.0388 4.81111,-0.16877 4.35933,-1.89639 -0.46511,-1.77856 -0.10047,-1.89175 4.38337,-1.36071 l 4.89067,0.57923 0.1846,-6.88929 c 0.29696,-11.08277 0.34654,-11.48149 1.51767,-12.20528 0.61461,-0.37985 1.53993,-3.01498 2.05627,-5.85584 1.46995,-8.08746 10.23098,-19.92052 16.13665,-21.79491 2.16586,-0.68741 3.64742,-5.1406 2.28858,-6.87891 -1.30401,-1.66819 -2.16486,-7.01067 -1.52432,-9.46008 0.37735,-1.443 2.11462,-2.62279 5.53506,-3.75888 5.4834,-1.82129 5.89538,-1.6434 8.63392,3.72808 2.39966,4.7068 1.74884,10.23729 -1.50601,12.79756 -2.26292,1.78001 -2.48206,2.71079 -2.7967,11.87869 -0.18777,5.47104 -0.89189,10.97596 -1.56472,12.23315 -1.113,2.07965 -0.82666,2.66058 3.17494,6.44142 5.72572,5.40983 11.43671,6.60087 15.88421,3.31269 1.63892,-1.2117 2.97985,-2.92847 2.97985,-3.81504 0,-2.13607 1.96611,-4.01194 4.20494,-4.01194 2.37549,0 11.79506,-9.66413 11.79506,-12.1013 0,-1.05592 0.69449,-1.8987 1.56462,-1.8987 3.67171,0 22.17472,8.63069 36.68538,17.11181 9.81158,5.73463 10.81089,7.80025 6.42518,13.28115 -2.2976,2.87135 -2.35368,2.88365 -7.50885,1.64694 -4.44041,-1.06524 -5.7752,-1.01344 -9.20038,0.35705 -4.51525,1.80664 -6.35805,2.06159 -3.69492,0.51118 2.83871,-1.65262 0.99743,-2.90813 -4.26495,-2.90813 -6.25492,0 -9.4732,1.25708 -11.62471,4.54071 -1.46433,2.23484 -1.50974,2.76316 -0.3023,3.51644 1.1658,0.7273 1.04066,1.15442 -0.69689,2.37878 -1.16481,0.82078 -2.40933,2.94981 -2.7656,4.73119 -0.98539,4.92695 -6.37337,15.36315 -9.83416,19.04821 -3.20057,3.40798 -7.75561,12.1144 -7.77265,14.85653 -0.0224,3.59536 -3.37791,11.05075 -6.2279,13.83714 -1.68161,1.64408 -5.29469,3.79373 -8.02907,4.777 -4.0703,1.46367 -6.03949,3.11524 -10.8622,9.11021 -3.23983,4.02734 -5.8906,8.18048 -5.8906,9.22919 0,1.04871 -0.64826,3.38451 -1.44058,5.19067 -2.76027,6.29227 -4.70233,14.40168 -4.38198,18.29768 0.28302,3.4419 0.71244,4.03392 3.50288,4.8292 2.09705,0.59767 4.25267,2.21912 5.03799,4.11506 0.65505,1.58142 0.80724,2.56353 1.15301,2.58985 0,0 0,0.66666 -11.62132,0.8267 -10.88663,-1.15128 -5.00029,-1.52889 -5.00029,-1.52889 z"
       style="fill:#000000"
       id="horse00" />
    <path
       d="m 607.88549,231.43621 c 5.8924,-1.26369 8.1796,-3.31495 6.0286,-5.4066 -1.2462,-1.21182 -12.2067,-5.52454 -14.0402,-5.52454 -1.2672,0 -5.1489,9.12596 -4.2492,9.98998 0.4814,0.46237 2.0003,1.04249 3.3753,1.28916 1.375,0.24667 2.8154,0.50978 3.2008,0.58468 0.3854,0.0749 2.9435,-0.34481 5.6847,-0.93268 z m -72.3855,66.98553 c 0,-6.23558 -0.077,-6.4255 -2.7136,-6.72958 -2.8323,-0.3266 -11.7977,3.10587 -11.7711,4.50668 0.01,0.44343 0.3459,1.31717 0.75,1.94165 1.0057,1.55426 11.4953,7.28863 12.7347,6.9617 0.55,-0.14508 1,-3.15129 1,-6.68045 z m 83.1222,14.53596 c 5.8935,-0.85574 8.3778,-2.03569 8.3778,-3.97912 0,-2.0167 -4.9274,-6.49009 -10.4133,-9.45381 -4.3941,-2.37389 -4.7089,-2.40894 -7.3389,-0.817 -1.5113,0.91482 -3.1978,2.47902 -3.7478,3.47601 -0.55,0.99699 -1.789,3.01129 -2.7534,4.47622 -0.9644,1.46493 -1.4952,3.33647 -1.1796,4.15897 0.5508,1.43533 8.7319,3.76296 11.0552,3.14532 0.6171,-0.16408 3.3171,-0.61705 6,-1.00659 z m -35.721,8.09848 c 2.9912,-1.54681 6.0988,-5.56889 6.0988,-7.89348 0,-0.77701 0.6279,-1.93387 1.3954,-2.57081 0.7675,-0.63694 1.705,-2.80861 2.0835,-4.82594 0.3784,-2.01732 1.5505,-5.35836 2.6046,-7.42453 1.0541,-2.06617 1.9165,-4.01074 1.9165,-4.32126 0,-1.03814 -5.2801,-2.58874 -15.5905,-4.57844 -5.6218,-1.08489 -13.4756,-3.31446 -17.453,-4.95459 -3.9774,-1.64013 -8.1822,-2.95716 -9.344,-2.92673 -3.1475,0.0824 -6.0479,4.52013 -8.603,13.16246 -2.1237,7.18343 -2.1707,7.88721 -0.6785,10.16464 1.4897,2.2735 12.3316,7.23987 20.0151,9.1683 1.5702,0.39408 3.3053,1.78472 3.9256,3.14628 2.1665,4.75479 8.4511,6.53195 13.6295,3.8541 z m -27.4012,9.53078 c -5.6666,-0.54955 -6.2128,-0.92332 -5.65,-3.86628 0.082,-0.43142 1.529,-1.599 3.2145,-2.59462 2.5673,-1.51657 3.5287,-1.61793 5.9263,-0.62482 2.841,1.17677 7.0092,0.61516 7.0092,-0.94441 0,-1.69734 -15.3767,-8.40641 -19.4333,-8.47899 l -4.0667,-0.0728 -0.6236,4.5 c -0.7763,5.60211 -2.9527,11 -4.4351,11 -2.9522,0 -4.7159,-10.57367 -1.9413,-11.63837 1.5645,-0.60035 2.116,-3.36163 0.6715,-3.36163 -0.4557,0 -2.9528,-1.40703 -5.5491,-3.12673 -2.5963,-1.7197 -8.8609,-5.2072 -13.9214,-7.75 -7.8938,-3.96643 -9.201,-4.97643 -9.201,-7.10907 0,-1.86996 1.2021,-3.27235 4.8521,-5.66067 5.2818,-3.45613 10.6479,-8.2569 10.6479,-9.52623 0,-0.43918 -2.6265,-2.12436 -5.8366,-3.74484 -3.2102,-1.62048 -7.3155,-4.63067 -9.1231,-6.68931 -3.07614,-3.50358 -3.25297,-4.09958 -2.76456,-9.31807 0.28698,-3.06629 0.67986,-6.25008 0.87306,-7.07508 0.9741,-4.15984 -12.39672,1.44116 -20.63161,8.64254 -2.74056,2.3966 -5.87197,4.35746 -6.95871,4.35746 -1.08673,0 -5.38572,2.64311 -9.5533,5.87357 -12.55357,9.73078 -17.63355,9.18499 -25.4116,-2.73023 -5.11171,-7.83064 -5.35803,-8.65339 -2.84357,-9.49768 0.9625,-0.32318 2.5375,-1.16086 3.5,-1.86151 1.38975,-1.01167 2.11025,-1.02072 3.5,-0.044 2.81178,1.97623 8.34218,4.2598 10.31647,4.2598 1.00223,0 3.53477,-1.57281 5.62788,-3.49513 4.34906,-3.9942 20.6184,-11.50447 24.92454,-11.50569 6.56571,-0.002 17.9025,-3.23363 24.9915,-7.1243 4.059,-2.22773 7.638,-4.46774 7.9532,-4.9778 1.1131,-1.80105 7.7383,-3.89704 12.3085,-3.89405 2.5454,0.002 9.2564,0.90166 14.9134,2 12.6581,2.45765 18.0542,2.57841 18.8814,0.42258 0.4419,-1.15145 1.3065,-1.38732 3.2187,-0.87803 4.5537,1.2129 8.009,1.43198 8.5586,0.54266 0.2925,-0.47328 0.035,-2.28562 -0.5721,-4.02743 -0.8773,-2.51651 -0.7721,-4.03597 0.5119,-7.39831 0.8888,-2.32725 1.616,-4.80885 1.616,-5.51465 0,-0.70581 1.0671,-2.71577 2.3713,-4.46657 1.3042,-1.75081 2.6079,-5.06978 2.8971,-7.3755 0.708,-5.6448 7.9969,-15.10959 14.1497,-18.37364 2.52,-1.33684 4.5819,-2.74341 4.5819,-3.12567 0,-0.38226 -0.8968,-1.32314 -1.9928,-2.09084 -2.2352,-1.56559 -3.5452,-6.46898 -2.6532,-9.93079 0.3241,-1.25773 1.8167,-2.84929 3.317,-3.53679 3.178,-1.45633 9.329,-1.67175 9.329,-0.32673 0,0.50781 1.0626,2.19531 2.3614,3.75 1.4047,1.68149 2.2487,3.8396 2.0833,5.32673 -0.1529,1.375 -0.3155,3.29048 -0.3614,4.25661 -0.046,0.96614 -1.1907,2.71946 -2.5441,3.89627 -2.1138,1.83796 -2.3797,2.73119 -1.8858,6.33483 0.6262,4.56897 -2.7685,16.53303 -5.2834,18.62022 -2.2888,1.89948 -1.5802,3.46076 3.2941,7.2583 4.9119,3.82679 8.7713,4.55935 13.8492,2.62873 2.2527,-0.8565 2.5514,-1.4241 2.0206,-3.84066 -0.6652,-3.02873 0.5404,-4.67314 3.8832,-5.29669 2.7224,-0.50782 3.0608,-2.49938 0.5368,-3.15941 -3.2256,-0.84353 -2.0368,-3.72648 2.5461,-6.17412 2.2,-1.17499 5.9773,-3.39515 8.3941,-4.93368 l 4.394,-2.79735 5.106,2.32501 c 2.8082,1.27876 6.7845,3.35032 8.836,4.60348 2.0516,1.25315 4.1107,2.27846 4.5757,2.27846 0.4651,0 1.9365,1.16273 3.2699,2.58384 1.3334,1.42111 6.8016,5.54595 12.1516,9.16631 8.9381,6.04838 9.6753,6.79211 9.0855,9.16616 -0.9135,3.67703 -4.3905,8.08369 -6.3784,8.08369 -0.9292,0 -2.2497,-0.675 -2.9344,-1.5 -1.6196,-1.9515 -8.6751,-1.9515 -13.3457,0 -4.1752,1.74448 -4.6543,1.80796 -4.6543,0.61663 0,-0.48585 0.9,-1.11872 2,-1.40638 3.3081,-0.86509 2.261,-2.41191 -2.0216,-2.98632 -5.7891,-0.77648 -9.1759,0.45001 -11.3038,4.09357 -2.2317,3.82123 -1.1204,4.14493 5.3467,1.55732 2.2339,-0.89385 4.3262,-1.3607 4.6494,-1.03744 0.3233,0.32326 -0.4829,1.00541 -1.7915,1.5159 -10.5522,4.11657 -10.8535,4.33234 -11.9389,8.5498 -1.2967,5.03853 -5.1508,13.51771 -9.0281,19.86194 -1.6291,2.6655 -2.9138,6.1904 -2.9159,8 0,4.08913 -4.8965,14.00511 -8.9951,18.23372 l -3.1306,3.23004 3.8147,4.54986 c 9.3661,11.17097 10.4377,12.75864 9.8536,14.59892 -1.1737,3.69795 -4.2251,5.05787 -16.3695,7.29541 -11.848,2.18293 -12.4364,2.20164 -17.104,0.54387 -6.8749,-2.44175 -7.6353,-2.23681 -10.0262,2.70224 -2.4254,5.01014 -4.2817,6.84645 -7.3867,7.30689 -1.1839,0.17555 -6.3101,0.98403 -11.3917,1.79661 -5.0816,0.81258 -10.0316,1.40177 -11,1.30931 -0.9684,-0.0925 -4.4608,-0.42996 -7.7608,-0.75 z"
       style="fill:#000000"
       id="horse01" />
    <path
       d="m 990.35046,228.29086 c 1.0178,-1.05491 1.6837,-2.08489 1.4797,-2.28884 -0.8165,-0.81651 -12.7827,-6.49695 -13.6862,-6.49695 -1.54407,0 -2.50837,7.85595 -1.16327,9.47678 2.36617,2.85103 10.35057,2.43837 13.36977,-0.69099 z m -13.37647,86.78251 c 0.50847,-1.33743 0.76007,-6.37838 0.55907,-11.20211 -0.41797,-10.03178 -1.02967,-10.89842 -8.41807,-11.92597 -6.2121,-0.86395 -17.4928,-4.25477 -23.615,-7.09834 -2.75,-1.27729 -5.5124,-2.32674 -6.1387,-2.33211 -2.435,-0.0209 -3.1676,9.86711 -1.2727,17.17992 0.955,3.68585 1.52,4.0802 7.5923,5.29993 3.5159,0.70622 5.844,2.85201 4.8462,4.46658 -0.3931,0.6361 0.5218,1.0438 2.3425,1.0438 1.6431,0 3.6626,0.675 4.4876,1.5 0.825,0.825 2.377,1.5 3.4489,1.5 1.072,0 2.4868,0.64798 3.1441,1.43997 1.2902,1.55456 3.6754,2.20972 8.8246,2.42385 2.6134,0.10868 3.4614,-0.35487 4.1992,-2.29552 z m -15.2827,7.95557 c -2.2747,-2.34824 -18.7624,-7.5431 -23.9008,-7.53051 -1.5591,0.004 -3.6821,-1.00892 -5,-2.38514 -2.5169,-2.62822 -17.9699,-7.60884 -23.6062,-7.60845 -5.1958,3.6e-4 -7.4868,-1.65241 -6.6979,-4.83194 0.364,-1.4673 1.507,-3.57397 2.54,-4.68148 2.5383,-2.72146 4.9736,-8.77186 4.9736,-12.35683 0,-2.74885 -0.4275,-3.06783 -6.75,-5.03654 -11.2988,-3.51826 -16.2401,-9.55346 -16.2462,-19.84298 0,-5.85399 -0.1495,-6.25 -2.3038,-6.25 -2.5447,0 -4.7,1.69672 -4.7,3.7 0,0.715 0.6485,1.3 1.441,1.3 2.2931,0 2.9394,2.04816 1.1964,3.79117 -2.2156,2.21557 -12.5145,3.35636 -15.2069,1.68442 -3.2474,-2.01662 -6.8384,-2.09355 -9.7159,-0.20813 -1.4543,0.9529 -3.0187,1.73254 -3.4765,1.73254 -0.4577,0 -2.611,1.82381 -4.7851,4.05292 -5.8699,6.01827 -12.8056,10.14708 -17.0456,10.14708 -4.3795,0 -11.1161,-5.64112 -9.3205,-7.80475 0.7619,-0.91799 0.4862,-1.55338 -1.0251,-2.3622 l -2.0674,-1.10643 2.1909,-2.96331 c 2.5714,-3.47803 6.4125,-3.91935 9.8544,-1.13222 2.2248,1.80146 2.3438,1.77577 7.3608,-1.58785 2.8047,-1.88042 5.2545,-3.84438 5.4439,-4.36436 0.522,-1.43275 12.1183,-7.08113 16.6556,-8.11265 2.2,-0.50015 8.3684,-1.50239 13.7076,-2.22719 10.1997,-1.38463 9.3752,-1.01012 24.8752,-11.2986 9.5475,-6.3374 12.3172,-6.93494 22.8158,-4.92238 12.3051,2.35885 23.652,3.2181 24.4945,1.85486 0.4628,-0.74882 1.4798,-0.79153 3.2074,-0.13471 1.3914,0.52898 4.2564,0.96179 6.3667,0.96179 l 3.8371,0 -1.3517,-4.49138 c -1.1411,-3.79149 -1.1349,-5.52773 0.04,-11.14189 0.7653,-3.65779 1.8492,-7.10825 2.4086,-7.66769 0.5668,-0.56683 0.7618,-2.88015 0.4404,-5.22497 -0.527,-3.84503 -0.2432,-4.57904 3.291,-8.51381 7.4105,-8.25036 10.7073,-10.97462 14.52497,-12.00263 3.8257,-1.03017 4.7875,-2.61275 2.7973,-4.60295 -0.5749,-0.57492 -1.1374,-2.96381 -1.25,-5.30863 -0.1686,-3.51257 0.2356,-4.59434 2.2954,-6.14314 3.423,-2.5739 8.4305,-3.46173 9.8792,-1.75159 4.4876,5.29746 5.5222,7.41026 5.2389,10.69838 -0.3842,4.45902 -2.6589,7.94407 -5.4442,8.3407 -1.8349,0.26131 -2.2747,1.16749 -2.8199,5.8096 -0.7119,6.06261 -2.8206,12.49318 -5.3756,16.39252 -1.6247,2.47961 -1.571,2.63894 2.5289,7.50109 4.6755,5.545 5.6537,6.10639 10.6401,6.10639 5.82114,0 7.46484,-1.44568 6.74704,-5.93436 -0.5892,-3.68495 -0.4779,-3.8884 2.4828,-4.5387 3.58,-0.78628 4.6227,-2.03299 4.6227,-5.52694 0,-1.94241 0.4561,-2.43796 2.0452,-2.22184 2.2403,0.3047 6.4548,-3.81987 6.4548,-6.31715 0,-2.52521 2.7627,-2.79176 7.2537,-0.69986 2.3355,1.08787 5.3466,2.31985 6.6915,2.73773 4.0056,1.24467 12.1267,6.49306 19.0169,12.28992 3.5541,2.9902 7.1434,5.69818 7.9761,6.01772 0.8327,0.31955 2.7401,1.67343 4.2386,3.00863 2.2287,1.98576 2.6176,2.99709 2.1367,5.55624 -1.1955,6.36087 -6.0314,8.37723 -12.3075,5.13169 -2.6746,-1.38305 -3.7825,-1.26801 -14.5658,1.51235 -6.4191,1.6551 -12.0348,3.234 -12.4792,3.50868 -0.4444,0.27468 -1.5788,2.85662 -2.5207,5.73765 -0.9419,2.88103 -3.2264,8.38667 -5.0765,12.23476 -2.5271,5.25621 -3.3638,8.32695 -3.3638,12.34519 0,4.04558 -0.7212,6.6628 -2.9602,10.74259 l -2.9602,5.39392 3.2102,2.48237 c 1.7656,1.36531 6.0227,4.51928 9.4602,7.00883 3.4375,2.48954 6.25,5.26356 6.25,6.16447 0,0.90091 -3.825,5.3029 -8.5,9.78219 -4.675,4.47929 -8.5,8.66085 -8.5,9.29235 0,1.17859 -15.95744,1.05399 -17.88884,-0.13968 -1.8046,-1.11534 0.2157,-4.75698 3.5108,-6.32834 2.71604,-1.29513 3.77264,-1.36767 5.61204,-0.38527 1.9166,1.02365 3.0705,0.8218 7.4834,-1.30909 5.012,-2.42016 8.2826,-6.33684 8.2826,-9.91884 0,-2.24493 -5.9528,-3.73326 -16.7411,-4.18568 -12.98894,-0.5447 -13.94404,7.1e-4 -16.78114,9.58224 -1.2253,4.13808 -2.5482,9.85294 -2.9397,12.6997 -0.3915,2.84675 -1.2353,5.5901 -1.875,6.09633 -0.6397,0.50623 -5.127,1.15572 -9.97177,1.44331 -8.1948,0.48645 -8.9615,0.36523 -11,-1.73924 z"
       style="fill:#000000"
       id="horse02" />
  </g>
</svg>
